<?xml version="1.0" encoding="utf-8"?>
<!-- Generator: Adobe Illustrator 22.0.1, SVG Export Plug-In . SVG Version: 6.00 Build 0)  -->
<svg version="1.1" id="Layer_1" xmlns="http://www.w3.org/2000/svg" xmlns:xlink="http://www.w3.org/1999/xlink" x="0px" y="0px"
	 viewBox="0 0 1346.1 769.5" style="enable-background:new 0 0 1346.1 769.5;" xml:space="preserve">
<style type="text/css">
	.st0{fill:#494954;}
	.st1{fill:#FFFFFF;stroke:#282828;stroke-width:11;stroke-miterlimit:10;}
	.st2{fill:#A70034;stroke:#282828;stroke-width:11;stroke-miterlimit:10;}
	.st3{fill:#FFFFFF;stroke:#282828;stroke-width:9;stroke-miterlimit:10;}
	.st4{fill:#F30058;stroke:#282828;stroke-width:11;stroke-miterlimit:10;}
	.st5{fill:#5AABDF;stroke:#282828;stroke-width:11;stroke-miterlimit:10;}
	.st6{fill:#F3E636;stroke:#282828;stroke-width:11;stroke-miterlimit:10;}
</style>
<rect class="st0" width="1346.1" height="769.5"/>
<g>
	<g>
		<circle class="st1" cx="333.6" cy="384.7" r="124"/>
		<path class="st2" d="M457.5,384.7H209.6c0-68.5,55.5-124,124-124S457.5,316.3,457.5,384.7z"/>
		<circle class="st3" cx="333.6" cy="384" r="41.7"/>
		<circle class="st1" cx="333.6" cy="384.7" r="124"/>
		<path class="st4" d="M457.5,384.7H209.6c0-68.5,55.5-124,124-124S457.5,316.3,457.5,384.7z"/>
		<circle class="st3" cx="333.6" cy="384" r="41.7"/>
	</g>
	<g>
		<circle class="st1" cx="673.1" cy="384.7" r="124"/>
		<path class="st5" d="M797,384.7H549.1c0-68.5,55.5-124,124-124S797,316.3,797,384.7z"/>
		<circle class="st3" cx="673.1" cy="384" r="41.7"/>
	</g>
	<g>
		<circle class="st1" cx="1012.6" cy="384.7" r="124"/>
		<path class="st6" d="M1136.5,384.7H888.6c0-68.5,55.5-124,124-124S1136.5,316.3,1136.5,384.7z"/>
		
			<ellipse transform="matrix(0.3827 -0.9239 0.9239 0.3827 270.2766 1172.5724)" class="st3" cx="1012.6" cy="384" rx="41.7" ry="41.7"/>
	</g>
</g>
</svg>
