<?xml version="1.0" encoding="utf-8"?>
<!-- Generator: Adobe Illustrator 22.0.1, SVG Export Plug-In . SVG Version: 6.00 Build 0)  -->
<svg version="1.1" id="Layer_1" xmlns="http://www.w3.org/2000/svg" xmlns:xlink="http://www.w3.org/1999/xlink" x="0px" y="0px"
	 viewBox="0 0 648 648" style="enable-background:new 0 0 648 648;" xml:space="preserve">
<style type="text/css">
	.st0{fill:#264DE3;}
	.st1{fill:#D8E1FA;}
	.st2{fill:#ACBBF4;}
	.st3{fill:#C1CDF7;}
	.st4{fill:#2965F1;}
	.st5{fill:#EBEBEB;}
	.st6{fill:#FFFFFF;}
</style>
<g>
	<path class="st0" d="M324.5,647.9c-0.3,0-0.6,0-0.9,0c-0.4-0.4-1-0.2-1.5-0.4c-4-0.3-7.8-1.8-11.6-2.8
		c-45.1-12.5-90.2-25.1-135.3-37.6c-11.6-3.2-23.3-6.5-34.9-9.7c-4.3-1.2-4.3-1.4-4.7-5.8c-1-11.1-2-22.2-3-33.3
		c-0.9-9.6-1.7-19.2-2.5-28.8c-0.6-7.3-1.4-14.6-2-21.9c-0.7-8-1.5-16-2.1-24c-0.6-7.4-1.4-14.8-2-22.2c-0.7-7.8-1.4-15.7-2.1-23.5
		c-0.7-7.8-1.4-15.7-2.1-23.5c-0.8-9.6-1.7-19.2-2.5-28.8c-0.8-9.1-1.6-18.3-2.4-27.4c-0.7-7.8-1.4-15.5-2.1-23.3
		c-0.9-9.7-1.7-19.3-2.6-29c-0.7-7.6-1.3-15.2-2-22.8c-0.9-9.4-1.7-18.9-2.5-28.3c-0.7-7.7-1.3-15.4-2-23.1
		c-0.9-9.5-1.7-19-2.6-28.5c-0.8-9.6-1.7-19.2-2.5-28.8c-0.6-7.4-1.4-14.8-2-22.1c-0.5-6.1-1.2-12.2-1.4-18.3c0-1.4,0.1-2.7-0.2-4.1
		c-0.1-0.6,0.2-1.2-0.2-1.7c0-0.2,0-0.3,0-0.5c0.6-0.6,1.4-0.6,2.1-0.6c0.8,0,1.7,0,2.5,0c149.8,0,299.6,0,449.4,0
		c1.1,0,2.1,0,3.2,0.1c0.9,0.1,1.6,0.4,1.6,1.5c0,0.6,0,1.2,0,1.7c0,8.6-0.9,17.2-1.7,25.8c-0.7,7.6-1.3,15.2-2,22.8
		c-0.9,9.5-1.7,19-2.6,28.5c-0.7,7.6-1.3,15.2-2,22.8c-0.9,9.5-1.7,19-2.6,28.5c-0.7,7.5-1.3,15.1-2,22.6c-0.9,9.7-1.7,19.3-2.6,29
		c-0.7,7.6-1.3,15.2-2,22.8c-0.9,9.4-1.7,18.9-2.5,28.3c-0.7,7.6-1.3,15.2-2,22.8c-0.9,9.6-1.7,19.2-2.6,28.8
		c-0.8,9.2-1.6,18.4-2.5,27.6c-0.9,9.7-1.8,19.3-2.6,29c-0.7,7.8-1.4,15.7-2.1,23.5c-0.6,7.4-1.4,14.8-2,22.1
		c-0.7,7.8-1.4,15.7-2.1,23.5c-0.8,9.3-1.7,18.6-2.5,27.9c-0.7,7.8-1.4,15.5-2.1,23.3c0,0.3,0,0.6,0,0.9c-0.3,4.7-0.5,5-5.1,6.3
		c-43.7,12.1-87.4,24.2-131.1,36.4c-15.6,4.3-31.3,8.6-46.9,13c-1.3,0.4-2.5,0.6-3.8,0.7C325.5,647.7,324.9,647.5,324.5,647.9z"/>
	<path d="M355.7,0.1c0,8,0,16.1,0.1,24.1c0,1.6-1,1.2-1.8,1.2c-11.7,0-23.4,0-35.1,0c-0.8,0-1.5,0.1-2.3,0c-1.1-0.1-1.2,0.4-1.3,1.4
		c-0.1,3.7-0.2,3.7,3.5,3.7c11.5,0,22.9,0,34.4,0c0.5,0,1.1,0,1.6,0c0.7,0,1,0.3,1,0.9c0,0.5,0,1.1,0,1.6c0,17.7,0,35.5,0,53.2
		c0,2.9,0.3,2.4-2.4,2.4c-21.6,0-43.1,0-64.7,0c-0.2,0-0.3,0-0.5,0c-1.9,0-1.9,0-1.9-1.8c0-4.1,0-8.3,0-12.4c0-3.5,0-7,0-10.6
		c0-2-0.1-1.8,1.9-1.8c11.9,0,23.9,0,35.8,0c2.8,0,2.8,0,2.8-2.8c0-0.4,0-0.8,0-1.1c0.1-1-0.4-1.2-1.2-1.1c-0.5,0-1.1,0-1.6,0
		c-11.7,0-23.4,0-35.1,0c-0.5,0-1.1,0-1.6,0c-0.7,0-1-0.3-0.9-1c0-0.3,0-0.6,0-0.9c0-18,0-35.9,0-53.9c0-0.4,0.1-0.8,0.1-1.1
		C309.5,0.1,332.6,0.1,355.7,0.1z"/>
	<path d="M439.2,0.1c0,7.7,0,15.5,0,23.2c0,2.4,0.3,2.1-2.3,2.1c-11.8,0-23.6,0-35.3,0c-0.5,0-1.1,0-1.6,0c-0.9-0.1-1.2,0.2-1.2,1.1
		c-0.3,3.9-0.3,3.9,3.7,3.9c11.4,0,22.8,0,34.2,0c0.5,0,1.1,0,1.6,0c0.7,0,1,0.3,0.9,1c0,0.5,0,1.1,0,1.6c0,17.7,0,35.3,0,53
		c0,0.3,0,0.6,0,0.9c0,1.7,0,1.7-1.8,1.7c-22,0-43.9,0-65.9,0c-1.9,0-1.9,0.2-1.9-1.9c0-7.6,0-15.3,0-22.9c0-2,0-1.8,1.9-1.8
		c12,0,24,0,36,0c0.5,0,1.1,0,1.6,0c0.7,0,0.9-0.3,0.9-1c0.4-4,0.4-4.1-3.6-4.1c-11.5,0-22.9,0-34.4,0c-0.5,0-1.1,0-1.6,0
		c-0.7,0-0.9-0.4-0.9-1c0-0.4,0-0.8,0-1.1c0-17.6,0-35.2,0-52.8c0-0.7-0.1-1.4,0.2-2C393,0.1,416.1,0.1,439.2,0.1z"/>
	<path d="M272.1,0.1c0.3,0.6,0.2,1.2,0.2,1.8c0,8.4,0,16.8,0,25.2c0,2.3,0.1,2.1-2.1,2.1l-35.8,0c-3,0-2.5-0.1-2.5,2.6
		c0,8.2,0,16.4,0,24.6c0,2,0,2,2,2c12,0,24,0,36,0c0.5,0,1.1,0,1.6,0c0.6,0,0.8,0.2,0.8,0.8c0,0.4,0,0.8,0,1.1c0,8.4,0,16.8,0,25.2
		c0,1.9,0.2,1.8-1.9,1.8c-21.9,0-43.7,0-65.6,0c-2.3,0-2,0.1-2-2.1c0-23.9,0-47.9,0-71.8c0-4.4,0-8.9,0-13.3
		C225.9,0.1,249,0.1,272.1,0.1z"/>
	<path class="st1" d="M553.1,129.2c0.1,0,0.3,0,0.4,0c0,0.5,0,0.9,0,1.4c-0.1,0-0.2,0-0.4,0C553.2,130.1,553.2,129.6,553.1,129.2z"
		/>
	<path class="st2" d="M322.6,647.9c0-0.2,0-0.3,0-0.5c0.4-0.1,0.7,0,0.9,0.5C323.2,647.9,322.9,647.9,322.6,647.9z"/>
	<path class="st3" d="M325.4,647.4c0,0.2,0,0.3,0,0.5c-0.3,0-0.6,0-0.9,0C324.6,647.4,325,647.4,325.4,647.4z"/>
	<path class="st4" d="M180.3,223.2c0.7-0.8,1.6-0.4,2.4-0.4c5.9,0,11.8,0,17.7,0c40.2,0,80.3,0,120.5,0c3.5,0,3.2,0.3,3.2-3.2
		c0-16.8,0-33.5,0-50.3c0-0.5,0-0.9,0-1.4c0-2,0-2,2.1-2c0.4,0,0.8,0,1.1,0c60.4,0,120.9,0,181.3,0c1,0,2.1-0.4,2.9,0.3
		c0.8,0.7-0.1,1.7-0.1,2.6c-0.1,4.3-0.6,8.5-1,12.7c-0.4,4.1-0.7,8.2-1.2,12.2c-0.3,2.5-0.5,5-0.6,7.5c-0.2,2.6-0.3,5.2-0.7,7.7
		c-0.4,1.9-0.3,3.8-0.4,5.7c-0.2,2.4-0.4,4.9-0.6,7.3c-0.5,4.3-0.5,8.6-1.2,12.9c-0.3,1.9-0.3,3.8-0.4,5.7c-0.1,2.5-0.4,5-0.7,7.5
		c-0.3,2.6-0.1,5.2-0.7,7.7c-0.4,1.7-0.4,3.6-0.5,5.4c-0.1,2.5-0.4,5-0.7,7.5c-0.3,2.3-0.1,4.7-0.7,7c-0.4,1.8-0.4,3.8-0.5,5.7
		c-0.2,4.6-0.8,9.1-1.1,13.6c-0.3,4.1-0.7,8.2-1.2,12.2c-0.3,2.4-0.4,4.9-0.7,7.3c-0.3,2.6-0.2,5.3-0.7,7.9
		c-0.4,1.7-0.4,3.5-0.5,5.2c-0.1,2.7-0.4,5.3-0.7,8c-0.4,4.1-0.5,8.2-1.2,12.2c-0.3,1.9-0.4,3.8-0.5,5.7c-0.2,4.4-0.7,8.8-1.1,13.2
		c-0.4,4.1-0.7,8.2-1.2,12.2c-0.3,2.6-0.4,5.3-0.7,8c-0.3,2.4-0.1,4.9-0.7,7.3c-0.4,1.7-0.3,3.5-0.4,5.2c-0.2,2.4-0.5,4.8-0.6,7.3
		c-0.2,2.7-0.3,5.5-0.8,8.2c-0.3,1.9-0.4,3.8-0.5,5.7c-0.2,4.4-0.8,8.8-1.1,13.2c-0.3,4.1-0.7,8.2-1.1,12.2
		c-0.3,2.4-0.4,4.9-0.7,7.3c-0.3,2.6-0.2,5.3-0.7,7.9c-0.4,1.8-0.4,3.8-0.5,5.7c-0.1,2.5-0.4,5-0.7,7.5c-0.3,2.6-0.1,5.2-0.7,7.7
		c-0.4,1.7-0.3,3.5-0.4,5.2c-0.1,2.6-0.6,5.1-0.6,7.7c0,2.3-0.5,4.5-0.7,6.8c-0.1,0.6-0.1,1.2-0.1,1.8c0,3-0.5,6.1-0.9,9.1
		c-0.2,1.9-0.4,3.8-0.4,5.7c-0.2,4.4-0.8,8.8-1.1,13.2c-0.3,4.1-0.7,8.2-1.1,12.2c-0.3,2.4-0.3,4.9-0.6,7.3
		c-0.3,2.6-0.2,5.3-0.7,7.9c-0.4,1.9-0.1,3.8-0.5,5.7c-0.2,1-0.6,1.4-1.5,1.6c-9,2.4-17.9,4.9-26.9,7.4c-8.9,2.5-17.7,5-26.6,7.5
		c-7.5,2.1-15,4.2-22.4,6.2c-8,2.2-16,4.4-24,6.6c-7.6,2.1-15.1,4.2-22.7,6.2c-7.9,2.2-15.7,4.4-23.5,6.5c-1,0.3-1.9,0.6-2.9,0.7
		c-0.9,0.2-1.5-0.1-1.5-1.2c0-0.4,0-0.8,0-1.1c0-18.9,0-37.8,0-56.7c0.1-0.1,0.1-0.2,0.2-0.4c1-0.8,2.2-1.1,3.4-1.4
		c36.8-10.2,73.6-20.4,110.3-30.6c3-0.8,3.1-1,3.4-4.2c1.1-11.1,2-22.2,3-33.3c1-11.2,2-22.4,3-33.6c1-11.1,2-22.2,3-33.3
		c0.9-9.4,1.6-18.7,2.5-28.1c0.9-9.4,1.7-18.9,2.6-28.3c0.9-9.4,1.7-18.7,2.5-28.1c1-11.1,2-22.2,3-33.3c0.9-9.4,1.7-18.7,2.5-28.1
		c0.7-7.8,1.4-15.5,2.1-23.3c0.5-5.4,0.9-10.8,1.5-16.2c0.2-1.6-0.5-2.3-2.1-2.3c-0.8,0-1.7,0-2.5,0c-45.5,0-91,0-136.5,0
		c-0.7,0-1.4,0-2.1,0c-0.8,0.1-1.5,0.1-2.3,0.1c-45.6,0-91.1,0-136.7,0C183.2,224,181.6,224.3,180.3,223.2z"/>
	<path class="st5" d="M324,548.4c-26.3-7.3-52.6-14.6-78.8-21.9c-12.3-3.4-24.6-6.8-36.9-10.3c-2.1-0.6-2.1-0.6-2.3-2.7
		c-0.7-8.2-1.5-16.4-2.2-24.7c-0.7-7.7-1.3-15.4-2-23.1c-0.7-7.6-1.4-15.2-2.1-22.8c-0.5-5.3-0.9-10.7-1.4-16
		c-0.1-1,0.2-1.4,1.2-1.4c0.5,0,0.9,0,1.4,0c17.4,0,34.9,0,52.3,0c0.2,0,0.5,0,0.7,0c2,0,1.9,0,2.1,2c0.9,9.7,1.8,19.3,2.6,29
		c0.4,4.2,0.7,8.4,1.1,12.6c0.2,2.1,0.1,2.1,2.1,2.7c19.9,5.4,39.8,10.8,59.7,16.1c0.4,0.1,0.9,0.1,1.4,0.2c0.6,0.4,1.6-0.3,1.8,0.8
		c0,18.9,0,37.7,0,56.6c0,0.9,0,1.9-0.7,2.6L324,548.4z"/>
	<path class="st5" d="M180.3,223.2c19.3,0,38.5,0,57.8,0c27.7,0,55.5,0,83.2,0c0.9,0,1.8,0.1,2.7,0.1c1,1.2,0.7,2.6,0.7,4
		c0,15.9,0,31.8,0,47.7c0,0.8,0,1.5,0,2.3c-0.1,1.6,0.7,2.2,2.2,2.1c0.8,0,1.7,0,2.5,0c23.8,0,47.6,0,71.4,0c1.4,0,3.1-0.7,4,1.2
		c-0.8,0.7-1.8,0.7-2.8,0.7c-25.1,0-50.1,0-75.2,0c-1,0-2,0-2.8-0.6c-1,0-2-0.1-3-0.1c-44.2,0-88.4,0-132.6,0c-2.9,0-3,0-3.2-2.8
		c-0.6-5.9-1.1-11.9-1.6-17.8c-0.7-7.7-1.5-15.4-2.1-23.1C181,232.4,180.4,227.8,180.3,223.2z"/>
	<path class="st5" d="M324,396.9c-1,0-2-0.1-3-0.1c-40.9,0-81.8,0-122.7,0c-3.1,0-2.7,0.3-3-2.8c-0.7-7.7-1.4-15.4-2.1-23
		c-0.5-5.9-1-11.7-1.5-17.6c-0.4-4.2-0.7-8.4-1.1-12.5c0-0.5-0.3-1.1,0.2-1.5c0.9-0.4,1.8-0.2,2.7-0.2c42.4,0,84.7,0.4,127.1-0.2
		c25-0.3,50-0.1,75-0.4c1.4,0,2.8-0.3,4,0.6c0.2,1.2-0.8,1.1-1.5,1.2c-1,0.2-2.1,0.1-3.2,0.1c-21.8,0-43.6,0-65.4,0
		c-0.5,0-1.1,0-1.6,0c-3.1,0-3.2,0.2-3.2,3.3c0,16.1,0,32.3,0,48.4c0,1.3,0.1,2.6-0.2,3.9C324.4,396.4,324.2,396.7,324,396.9z"/>
	<path class="st4" d="M324.4,488.6c-0.5-0.1-1.1,0.1-1.5-0.4c0.7-0.1,1.1-0.4,1.1-1.2c0-0.7,0-1.4,0-2.1c0-29.3,0-58.7,0-88
		c0,0,0-0.2,0-0.2c0.9-0.7,2-0.6,3.1-0.6c21.5,0,43,0,64.5,0c3.6,0,3.9,0.5,3.6,4.1c-0.8,9.4-1.7,18.9-2.5,28.3
		c-1,11.1-2,22.2-3,33.3c-0.2,2.4-0.6,4.7-0.6,7.1c0,2.1-1,3.2-3,3.7c-8.3,2.3-16.5,4.5-24.8,6.7c-10.7,2.9-21.4,5.8-32.1,8.7
		C327.6,488.4,326.1,489.2,324.4,488.6z"/>
	<path class="st4" d="M399.7,339.3c-0.4,0-0.8,0.1-1.1,0.1c-0.5,0-1.1,0-1.6,0c-67.7,0-135.4,0-203.1,0c-1,0-2,0-3-0.1
		c0.9-0.8,1.9-0.4,2.9-0.4c42.3,0,84.5,0,126.8,0c3.9,0,3.5,0.4,3.5-3.4c0-18.3,0-36.5,0-54.8c0.3,0,0.6-0.1,0.9-0.1
		c26.6,0,53.2,0,79.9,0c0.9,0.9,0.7,2,0.6,3c-1.2,13.5-2.4,27-3.6,40.6c-0.4,4.1-0.7,8.2-1.1,12.3
		C400.5,337.5,400.5,338.5,399.7,339.3z"/>
	<path class="st6" d="M399.7,339.3c0.7-8.1,1.5-16.3,2.2-24.4c0.5-5.6,1-11.3,1.5-16.9c0.4-4.8,0.9-9.6,1.3-14.4c0.1-1,0.1-2,0.1-3
		c-0.7-0.9-1.7-0.5-2.6-0.5c-22.9,0-45.9,0-68.8,0c-2.6,0-5.2,0-7.8,0c-1.2,0-1.7-0.4-1.6-1.6c0-0.3,0-0.6,0-0.9
		c0-18.1,0-36.2,0-54.4c0.8,0,1.7-0.1,2.5-0.1c46.1,0,92.2,0,138.4,0c3.1,0,3-0.6,2.7,3c-1,12-2.1,24.1-3.2,36.1
		c-1.2,13.7-2.4,27.4-3.7,41.1c-1.1,12-2.1,24.1-3.2,36.1c-1.2,13.6-2.4,27.3-3.7,40.9c-1.2,13.7-2.5,27.4-3.7,41.1
		c-1.1,12-2.1,24.1-3.2,36.1c-1.1,12-2.1,23.9-3.2,35.9c-0.6,6.7-1.2,13.4-1.8,20.1c-0.2,2.2-0.2,2.2-2.4,2.9
		c-20.7,5.7-41.4,11.5-62,17.2c-17.3,4.8-34.6,9.6-51.9,14.4c-0.5,0.1-1,0.4-1.6,0.3c0-18.8,0-37.6,0-56.5c0-1.1-0.2-2.2,0.4-3.1
		c5.5-1.5,11-3.1,16.5-4.6c15-4,29.9-8.1,44.9-12.1c2.2-0.6,2.2-0.6,2.4-2.9c0.7-8.1,1.5-16.1,2.2-24.2c0.7-7.7,1.3-15.4,2-23.1
		c0.7-7.6,1.4-15.2,2.1-22.8c0-0.5,0.1-0.9,0.1-1.4c0-0.4-0.2-0.7-0.7-0.7c-0.7,0-1.4,0-2.1,0c-21.7,0-43.4,0-65.1,0
		c-0.9,0-1.8-0.1-2.7-0.1c0-18,0-35.9,0-53.9c0-0.2,0-0.3,0-0.5c0-2.5,0-2.5,2.5-2.5c23.5,0,47.1,0,70.6,0
		C398,339.8,399,340.2,399.7,339.3z"/>
</g>
</svg>
