<?xml version="1.0" encoding="utf-8"?>
<!-- Generator: Adobe Illustrator 22.0.1, SVG Export Plug-In . SVG Version: 6.00 Build 0)  -->
<svg version="1.1" id="Layer_1" xmlns="http://www.w3.org/2000/svg" xmlns:xlink="http://www.w3.org/1999/xlink" x="0px" y="0px"
	 viewBox="0 0 648 648" style="enable-background:new 0 0 648 648;" xml:space="preserve">
<style type="text/css">
	.st0{fill:#E24C26;}
	.st1{fill:#F06429;}
	.st2{fill:#EAEAEA;}
	.st3{fill:#FEFEFE;}
	.st4{fill:#F06529;}
	.st5{fill:#FCFCFC;}
	.st6{fill:#E34D26;}
</style>
<g>
	<path class="st0" d="M324.3,648c-0.4,0-0.9,0-1.3,0c-12.1-2.6-23.9-6.4-35.8-9.6c-19.1-5.2-38.2-10.5-57.3-15.8
		c-24.1-6.7-48.3-13.4-72.4-20.1c-6.3-1.8-12.7-3.5-19-5.3c-2.6-0.7-2.7-0.7-2.9-3.3c-0.7-7.1-1.3-14.2-1.9-21.3
		c-0.6-6.6-1.2-13.2-1.8-19.8c-0.6-6.6-1.2-13.1-1.7-19.7c-0.6-6.7-1.2-13.4-1.8-20.1c-0.5-5.3-0.9-10.6-1.4-16
		c-0.5-5.6-1-11.2-1.5-16.8c-0.5-5.4-0.9-10.7-1.4-16.1c-0.6-6.7-1.2-13.4-1.8-20.1c-0.5-5.6-1.1-11.2-1.5-16.8
		c-0.2-2.2-0.4-4.4-0.6-6.6c0-0.7,0.1-1.4-0.2-2.1c-0.1-0.6-0.1-1.2-0.1-1.8c0-0.6,0-1.2-0.2-1.8c-0.1-0.6-0.1-1.2-0.1-1.8
		c0-0.7,0.1-1.4-0.2-2c-0.1-0.5-0.1-1-0.1-1.5c0-0.7,0-1.4-0.2-2c-0.1-0.5-0.1-1-0.1-1.5c0-0.7,0-1.4-0.2-2
		c-0.1-0.6-0.1-1.2-0.1-1.8c0-0.6,0-1.2-0.2-1.8c-0.1-0.6-0.1-1.2-0.1-1.8c0-0.6,0-1.2-0.2-1.8c-0.1-0.6-0.1-1.2-0.1-1.8
		c0-0.7,0-1.4-0.2-2c-0.1-0.5-0.1-1-0.1-1.5c0-0.7,0-1.4-0.2-2c-0.1-0.5-0.1-1-0.1-1.5c0-0.7,0-1.4-0.2-2c-0.1-0.6-0.1-1.2-0.1-1.8
		c0-0.6,0-1.2-0.2-1.8c-0.1-0.6-0.1-1.2-0.1-1.8c0-0.7,0-1.4-0.2-2c-0.1-0.5-0.1-1-0.1-1.5c0-0.7,0-1.4-0.2-2
		c-0.1-0.5-0.1-1-0.1-1.5c0-0.7,0-1.4-0.2-2c-0.1-0.6-0.1-1.2-0.1-1.8c0-0.6,0-1.2-0.2-1.8c-0.1-0.6-0.1-1.2-0.1-1.8
		c0-0.6,0-1.2-0.2-1.8c-0.1-0.6-0.1-1.2-0.1-1.8c0-0.7,0-1.4-0.2-2c-0.1-0.5-0.1-1-0.1-1.5c0-0.7,0-1.4-0.2-2
		c-0.1-0.5-0.1-1-0.1-1.5c0-0.7,0-1.4-0.2-2c-0.1-0.6-0.1-1.2-0.1-1.8c0-0.6,0-1.2-0.2-1.8c-0.1-0.6-0.1-1.2-0.1-1.8
		c0-0.7,0-1.4-0.2-2c-0.1-0.5-0.1-1-0.1-1.5c0-0.7,0-1.4-0.2-2c-0.1-0.5-0.1-1-0.1-1.5c0-0.7,0-1.4-0.2-2c-0.1-0.6-0.1-1.2-0.1-1.8
		c0-0.6,0-1.2-0.2-1.8c-0.1-0.6-0.1-1.2-0.1-1.8c0-0.7,0-1.4-0.2-2c-0.1-0.5-0.1-1-0.1-1.5c0-0.7,0-1.4-0.2-2
		c-0.1-0.5-0.1-1-0.1-1.5c0-0.7,0-1.4-0.2-2c-0.1-0.5-0.1-1-0.1-1.5c0-0.7,0-1.4-0.2-2c-0.1-0.6-0.1-1.2-0.1-1.8
		c0-0.6,0-1.2-0.2-1.8c-0.1-0.6-0.1-1.2-0.1-1.8c0-0.7,0-1.4-0.2-2c-0.1-0.5-0.1-1-0.1-1.5c0-0.7,0-1.4-0.2-2
		c-0.1-0.5-0.1-1-0.1-1.5c0-0.7,0-1.4-0.2-2c-0.1-0.6-0.1-1.2-0.1-1.8c0-0.6,0-1.2-0.2-1.8c-0.1-0.6-0.1-1.2-0.1-1.8
		c0-0.7,0-1.4-0.2-2c-0.1-0.5-0.1-1-0.1-1.5c0-0.7,0-1.4-0.2-2c-0.1-0.5-0.1-1-0.1-1.5c0-0.7,0-1.4-0.2-2c-0.1-0.5-0.1-1-0.1-1.5
		c0-0.7,0-1.4-0.2-2c-0.1-0.6-0.1-1.2-0.1-1.8c0-0.6,0-1.2-0.2-1.8c-0.1-0.6-0.1-1.2-0.1-1.8c0-0.7,0-1.4-0.2-2
		c-0.1-0.5-0.1-1-0.1-1.5c0-0.7,0-1.4-0.2-2c-0.1-0.5-0.1-1-0.1-1.5c0-0.7,0-1.4-0.2-2c-0.1-0.6-0.1-1.2-0.1-1.8
		c0-0.6,0-1.2-0.2-1.8c-0.1-0.6-0.1-1.2-0.1-1.8c0-0.7,0-1.4-0.2-2c-0.1-0.5-0.1-1-0.1-1.5c0-0.7,0-1.4-0.2-2
		c-0.1-0.5-0.1-1-0.1-1.5c0-0.7,0-1.4-0.2-2c-0.1-0.6-0.1-1.2-0.1-1.8c0-0.6,0-1.2-0.2-1.8c-0.1-0.6-0.1-1.2-0.1-1.8
		c0-0.6,0-1.2-0.2-1.8c-0.1-0.6-0.1-1.2-0.1-1.8c0-0.7,0-1.4-0.2-2c-0.1-0.5-0.1-1-0.1-1.5c0-0.7,0-1.4-0.2-2
		c-0.1-0.5-0.1-1-0.1-1.5c0-0.7,0-1.4-0.2-2c-0.1-0.6-0.1-1.2-0.1-1.8c0-0.6,0-1.2-0.2-1.8c-0.1-0.6-0.1-1.2-0.1-1.8
		c0-0.7,0-1.4-0.2-2c-0.1-0.5-0.1-1-0.1-1.5c0-0.7,0-1.4-0.2-2c-0.1-0.5-0.1-1-0.1-1.5c0-0.7,0-1.4-0.2-2c-0.1-0.6-0.1-1.2-0.1-1.8
		c0-0.6,0-1.2-0.2-1.8c-0.1-0.6-0.1-1.2-0.1-1.8c0-0.6,0-1.2-0.2-1.8c-0.1-0.6-0.1-1.2-0.1-1.8c0-0.7,0-1.4-0.2-2
		c-0.1-0.5-0.1-1-0.1-1.5c0-0.7,0-1.4-0.2-2c-0.1-0.5-0.1-1-0.1-1.5c0-0.7,0-1.4-0.2-2c-0.1-0.6-0.1-1.2-0.1-1.8
		c0-0.6,0-1.2-0.2-1.8c-0.1-0.6-0.1-1.2-0.1-1.8c0-0.7,0-1.4-0.2-2c-0.1-0.5-0.1-1-0.1-1.5c0-0.7,0-1.4-0.2-2
		c-0.1-0.5-0.1-1-0.1-1.5c0-0.7,0-1.4-0.2-2c-0.1-0.6-0.1-1.2-0.1-1.8c0-0.6,0-1.2-0.2-1.8c-0.1-0.6-0.1-1.2-0.1-1.8
		c0-0.6,0-1.2-0.2-1.8c-0.1-0.6-0.1-1.2-0.1-1.8c0-0.7,0-1.4-0.2-2c-0.1-0.5-0.1-1-0.1-1.5c0-0.7,0-1.4-0.2-2
		c-0.1-0.5-0.1-1-0.1-1.5c0-0.7,0-1.4-0.2-2c-0.1-0.6-0.1-1.2-0.1-1.8c0-0.6,0-1.2-0.2-1.8c-0.1-0.6-0.1-1.2-0.1-1.8
		c0-0.7,0-1.4-0.2-2c-0.1-0.5-0.1-1-0.1-1.5c0-0.7,0-1.4-0.2-2c-0.1-0.5-0.1-1-0.1-1.5c0-0.7,0-1.4-0.2-2c-0.1-0.6-0.1-1.2-0.1-1.8
		c0-0.6,0-1.2-0.2-1.8c-0.1-0.6-0.1-1.2-0.1-1.8c0-0.7,0-1.4-0.2-2c-0.1-0.5-0.1-1-0.1-1.5c0-0.7,0-1.4-0.2-2
		c-0.1-0.5-0.1-1-0.1-1.5c0-0.7,0-1.4-0.2-2c-0.1-0.5-0.1-1-0.1-1.5c0-0.7,0-1.4-0.2-2c-0.1-0.6-0.1-1.2-0.1-1.8
		c0-0.6,0-1.2-0.2-1.8c-0.1-0.6-0.1-1.2-0.1-1.8c0-0.7,0-1.4-0.2-2c-0.1-0.5-0.1-1-0.1-1.6c0-0.7,0-1.4-0.2-2
		c-0.1-0.5-0.1-1.1-0.1-1.6c0.1-0.8-0.2-1.6,0.2-2.3c0.5-0.4,1.1-0.4,1.7-0.4c0.8,0,1.5,0,2.3,0c107.5,0,215.1,0,322.6,0
		c1.1,0,2.2,0,3.2,0.1c1.2-0.1,2.5,0,3.7,0c40.8,0,81.6,0,122.5,0c3.8,0,3.8,0.1,3.4,3.8c-0.9,9.5-1.7,19-2.6,28.5
		c-0.8,9-1.6,18.1-2.4,27.1c-0.7,7.9-1.4,15.8-2.1,23.7c-0.7,7.8-1.4,15.7-2.1,23.5c-0.7,7.9-1.4,15.8-2.1,23.7
		c-0.7,7.8-1.4,15.7-2.1,23.5c-0.6,6.6-1.2,13.2-1.8,19.8c-0.6,6.7-1.2,13.3-1.8,20c-0.6,6.7-1.2,13.3-1.8,20
		c-0.6,6.7-1.2,13.4-1.8,20.1c-0.6,6.6-1.1,13.2-1.8,19.8c-0.6,6.7-1.2,13.3-1.8,20c-0.6,6.8-1.2,13.5-1.8,20.3
		c-0.4,5.3-1,10.5-1.4,15.8c-0.5,5.6-1,11.2-1.5,16.8c-0.4,5.3-1,10.5-1.4,15.8c-0.6,6.8-1.2,13.6-1.8,20.5
		c-0.6,6.6-1.2,13.1-1.8,19.7c-0.6,6.7-1.2,13.3-1.8,20c-0.6,6.7-1.2,13.4-1.8,20.1c-0.6,6.8-1.2,13.5-1.8,20.3
		c-0.4,5.3-1,10.5-1.4,15.8c-0.3,2.8-0.4,5.6-0.8,8.4c-0.3,2.2-0.5,2.4-2.5,3c-10.9,3-21.9,6.1-32.8,9.1c-15.3,4.2-30.7,8.5-46,12.8
		c-22.9,6.3-45.8,12.7-68.7,19c-11.4,3.2-22.9,6.3-34.3,9.5C326.8,647.7,325.5,647.6,324.3,648z"/>
	<path d="M427,0c0,0.6-0.1,1.3-0.1,1.9c0,27.9,0,55.7,0,83.6c0,1.4-0.3,1.9-1.8,1.9c-8.6-0.1-17.2-0.1-25.7,0
		c-1.3,0-1.6-0.4-1.6-1.6c0-13.7,0-27.4-0.3-41.3c-6.7,10.2-13.3,20.5-20.1,30.9c-6.8-10.4-13.4-20.7-20.3-31.3c0,5.5,0,10.7,0,15.8
		c0,8.6-0.1,17.2,0,25.7c0,1.3-0.3,1.7-1.7,1.7c-8.3-0.1-16.6,0-24.9,0c-0.6,0-1.2,0.1-1.8,0.1c-0.7-0.4-0.3-1.1-0.3-1.6
		c0-17.6,0.2-35.2-0.1-52.8C328,23,328.1,12.9,328,2.8c0-1-0.2-2,0.5-2.8c10.2,0,20.3,0,30.5,0c0.8,0.4,1.1,1.1,1.5,1.8
		C366,10.9,371.5,20,377,29c0.1,0.2,0.3,0.5,0.5,0.7c0.5-0.4,0.8-0.9,1.1-1.5c5.3-8.8,10.7-17.4,15.9-26.2c0.4-0.7,0.9-1.5,1.6-2
		C406.5,0,416.7,0,427,0z"/>
	<path d="M166.3,87.4c-4.9,0-9.7-0.1-14.6-0.1c-4.4,0-8.7-0.1-13.1,0c-1.3,0-1.6-0.4-1.6-1.6c0-28,0-55.9,0-83.9
		c0-0.6-0.1-1.3-0.1-1.9c9.7,0,19.4,0,29.2,0c0.7,0.8,0.5,1.7,0.5,2.6c0,7.8,0,15.5,0,23.3c0,2.3,0.1,2.4,2.3,2.4
		c7.1,0,14.1,0,21.2,0c2.3,0,2.3-0.1,2.3-2.4c0-7.8,0-15.5,0-23.3c0-0.9-0.1-1.9,0.5-2.6c9.7,0,19.4,0,29.2,0c0,28.4,0,56.9,0,85.3
		c0,1.7-0.4,2-2.1,2c-8.5-0.1-17-0.1-25.4,0c-1.5,0-1.7-0.4-1.7-1.8c0.1-8.6,0-17.2,0.1-25.7c0-1.4-0.4-1.6-1.7-1.6
		c-7.7,0.1-15.3,0-23,0c-0.5,0-1.1,0.1-1.6,0.1c-0.3,0.6-0.2,1.2-0.2,1.7c0,8.6,0,17.2,0,25.7C166.6,86.3,167,87,166.3,87.4z"/>
	<path d="M315.5,29.1c-8.1,0-16.2,0-24.3,0c-1.3,0-1.4,0.4-1.4,1.6c0,18.3,0,36.6,0.1,54.9c0,1.5-0.4,1.9-1.9,1.9
		c-8.4-0.1-16.8,0-25.2,0c-0.6,0-1.2,0.1-1.8,0.1c-0.6-0.5-0.3-1.2-0.3-1.8c0-18.2,0-36.5,0-54.7c0-0.6,0.2-1.2-0.2-1.7
		c-3,0-6-0.1-9-0.1c-4.8,0-9.7-0.1-14.5,0c-1.5,0-2-0.3-2-1.9c0.1-8.5,0-17,0-25.5c0-0.6-0.1-1.2-0.1-1.8c26.9,0,53.8,0,80.7,0
		c0.6,0.7,0.5,1.5,0.5,2.3c0,4.8,0.2,9.7-0.1,14.5c-0.3,3.9-0.2,7.8-0.3,11.7C315.7,28.8,315.6,29,315.5,29.1z"/>
	<path d="M470.4,0c0,19,0,38,0,57c0,1.3,0.3,1.5,1.5,1.5c12.7,0,25.4,0,38.1-0.1c1.3,0,1.7,0.3,1.7,1.7c-0.1,8.5-0.1,17.1,0,25.6
		c0,1.3-0.3,1.7-1.7,1.7c-22.4,0-44.7,0-67.1,0c-1.4,0-1.7-0.3-1.7-1.7c0-28.2,0-56.5,0-84.7c0-0.3,0-0.6,0-1C451,0,460.7,0,470.4,0
		z"/>
	<path class="st1" d="M179.7,223.9c-0.4-0.6-0.2-0.9,0.5-1c0.5,0,1,0,1.5,0c46.7,0,93.3,0,140,0c2.6,0,2.4,0.3,2.4-2.3
		c0-17.5,0-35.1,0-52.6c0-1.5,0.3-2.1,2-2.1c61.2,0.1,122.5,0,183.7,0c2,0,2.1,0.1,1.9,2.1c-0.6,6.1-1.2,12.2-1.6,18.3
		c-0.3,4.7-0.8,9.4-1.3,14.1c-0.5,6.1-1,12.2-1.6,18.3c-0.6,6.1-1.1,12.3-1.6,18.4c-0.5,5.9-1.1,11.8-1.6,17.8
		c-0.5,6.1-1.1,12.2-1.6,18.3c-0.4,4.8-0.9,9.6-1.3,14.4c-0.5,6.5-1.3,12.9-1.9,19.4c-0.4,4.3-0.6,8.6-1,12.8
		c-0.5,5.3-1.1,10.6-1.6,15.8c-0.3,3-0.4,6-0.7,9c-0.4,4.2-0.8,8.4-1.2,12.6c-0.3,2.9-0.4,5.9-0.7,8.8c-0.4,4.3-0.8,8.5-1.2,12.8
		c-0.3,2.8-0.5,5.7-0.7,8.5c-0.4,4.4-0.7,8.9-1.2,13.3c-0.4,2.9-0.5,5.9-0.7,8.8c-0.4,4.3-0.8,8.5-1.2,12.8
		c-0.3,2.8-0.5,5.7-0.7,8.5c-0.4,4.4-0.7,8.9-1.2,13.3c-0.3,2.8-0.5,5.6-0.7,8.3c-0.5,4.6-0.9,9.2-1.3,13.8c-0.4,4.1-0.6,8.2-1,12.3
		c-0.4,4.3-0.8,8.5-1.2,12.8c-0.3,2.7-0.5,5.5-0.7,8.2c-0.4,4.5-0.9,9.1-1.2,13.6c-0.3,2.9-0.4,5.9-0.7,8.8
		c-0.4,4.3-0.8,8.5-1.2,12.8c-0.3,2.7-0.5,5.5-0.7,8.2c-0.4,4.5-0.8,9.1-1.3,13.6c-0.2,2.6-0.5,5.2-0.6,7.9c0,1.2-0.5,1.6-1.5,1.9
		c-5.6,1.6-11.3,3.2-16.9,4.7c-9.7,2.7-19.5,5.4-29.2,8.1c-10,2.8-20.1,5.6-30.1,8.4c-9.6,2.7-19.3,5.4-28.9,8.1
		c-9.7,2.7-19.5,5.4-29.2,8.1c-4.8,1.3-9.6,2.7-14.4,4c-1.7,0.5-1.7,0.5-1.7-1.4c0-18.3,0-36.5,0-54.8c0-0.9,0-1.8,0-2.7
		c0.3-1.1,1.3-1.1,2.1-1.3c8.1-2.3,16.2-4.5,24.3-6.8c16.2-4.5,32.5-9,48.7-13.5c13.3-3.7,26.5-7.4,39.8-11.1
		c2.1-0.6,2.1-0.6,2.3-2.8c1-10.2,1.9-20.4,2.8-30.6c0.9-10.3,1.9-20.6,2.7-30.9c0.7-7.7,1.4-15.4,2.1-23c0.7-8,1.4-15.9,2.1-23.9
		c0.7-7.7,1.4-15.4,2.1-23c0.7-7.8,1.4-15.6,2.1-23.4c0.5-5.4,0.9-10.7,1.5-16.1c0.2-2,0.1-2.2-2-2.2c-9.6,0-19.1,0-28.7,0
		c-33.6,0-67.3,0-100.9,0c-0.5,0-1,0-1.5,0c-0.4,0.1-0.9,0.1-1.3,0.1c-23.7,0-47.5,0-71.2,0c-1,0-2.2,0.5-2.8-0.8
		c0.9-0.7,2-0.5,3-0.5c22.9,0,45.9,0,68.8,0c3.9,0,3.5,0.3,3.5-3.5c0-17.2,0-34.4,0-51.7c0-1-0.2-2.1,0.4-3c0.7-0.6,1.6-0.5,2.5-0.5
		c5,0,10,0,15.1,0c39.1,0,78.2,0,117.3,0c3.2,0,3.3,0,3.6-3.2c0.9-9,1.7-18.1,2.5-27.1c0.7-7.5,1.4-15,2.1-22.6
		c0.3-3.5,0.4-3.5-3.1-3.5c-46.1,0-92.2,0-138.3,0c-0.6,0-1.2,0-1.8,0c-1,0.1-1.9,0-2.9,0c-45.7,0-91.4,0-137.1,0
		C182.3,223.8,181,223.8,179.7,223.9z"/>
	<path class="st2" d="M179.7,223.9c0.1-0.3,0.1-0.7,0.5-0.7c0.4,0,0.9,0,1.3,0c46.9,0,93.8,0,140.7,0c0.5,0,1,0,1.5,0
		c0.5,0.6,0.5,1.4,0.5,2.2c0,17.7,0,35.4,0,53.1c0,0.7,0,1.4-0.4,2c-0.8,0.8-1.9,0.6-2.9,0.6c-19.7,0-39.4,0-59.1,0
		c-5.4,0-10.8,0-16.2,0c-2.1,0-2.2,0.1-2,2.2c0.4,5.3,1,10.5,1.4,15.8c0.6,6.7,1.2,13.3,1.8,20c0.5,5.5,1,11,1.5,16.4
		c0.1,1.2,0.3,2.5,0,3.7c0.6,0.5,1.2,0.2,1.8,0.2c23.9,0,47.8,0,71.7,0c0.6,0,1.3,0,1.9,0c0.5,0.6,0.5,1.4,0.5,2.2
		c0,18,0,35.9,0,53.9c0,0.4,0,0.9-0.2,1.3c-0.8,0-1.6,0-2.4,0c-41.4,0-82.8,0-124.2,0c-1.4,0-2-0.2-2.1-1.8
		c-0.7-9.2-1.6-18.5-2.5-27.7c-0.9-10.2-1.9-20.3-2.8-30.5c-0.8-9-1.6-17.9-2.4-26.9c-0.9-10.2-1.9-20.3-2.8-30.5
		c-0.7-7.4-1.3-14.8-2-22.2C181.7,246.1,180.7,235,179.7,223.9z"/>
	<path class="st3" d="M324,396.9c-0.4-0.6-0.3-1.2-0.3-1.9c0-18.5,0-37,0-55.4c0.5,0,1.1-0.1,1.6-0.1c43.3,0,86.6,0,129.9,0
		c2.1,0,2.1,0,1.9,2.1c-1.5,16.9-3,33.7-4.5,50.6c-1.4,15.6-2.8,31.3-4.2,46.9c-1.6,17.4-3.2,34.8-4.7,52.2
		c-0.7,7.7-1.4,15.5-2,23.2c-0.1,1.6-1.1,1.6-2.1,1.9c-24.1,6.7-48.3,13.4-72.4,20.1c-14,3.9-28,7.8-42,11.7
		c-0.4,0.1-0.9,0.1-1.1,0.5c-0.1-0.1-0.2-0.1-0.3-0.2c-0.5-0.6-0.5-1.3-0.5-2c0-18.6,0-37.2,0-55.7c0-0.9,0-1.8,1-2.2
		c0.5-0.7,1.3-0.8,2-1c19.8-5.3,39.5-10.6,59.3-15.9c2-0.5,2.1-0.8,2.3-2.7c0.7-8,1.4-16,2.2-24c0.6-6.5,1.1-13.1,1.7-19.7
		c0.5-5.3,1-10.5,1.4-15.8c0.3-3.6,0.6-7.2,1-10.8c0.1-1-0.3-1.4-1.2-1.4c-0.6,0-1.2,0-1.8,0c-21.4,0-42.7,0-64.1,0
		C325.8,397.4,324.8,397.6,324,396.9L324,396.9z"/>
	<path class="st2" d="M324.3,488.7c-0.8,0.5-0.6,1.3-0.6,2c0,18.8,0,37.6,0,56.4c0,0.5,0,1,0,1.5c-5.2-1.4-10.5-2.8-15.7-4.3
		c-33.5-9.4-67-18.7-100.6-28.1c-0.9-0.3-1.3-0.6-1.4-1.6c-0.6-6.7-1.2-13.3-1.8-20c-0.8-9.2-1.7-18.4-2.5-27.6
		c-0.8-9-1.6-17.9-2.4-26.9c-0.4-4.3-0.8-8.6-1.2-12.9c-0.1-1.2,0.1-1.7,1.4-1.7c18.3,0,36.5,0,54.8,0c1.1,0,1.5,0.3,1.6,1.4
		c0.6,6.7,1.2,13.4,1.8,20.2c0.7,7.7,1.4,15.5,2,23.2c0.1,1.2,0.8,1.3,1.7,1.5c19.5,5.2,39,10.4,58.6,15.7c1.4,0.4,2.7,1,4.2,0.9
		C324.1,488.5,324.2,488.5,324.3,488.7z"/>
	<path class="st4" d="M324.3,488.7c-0.1,0-0.2-0.1-0.3-0.1c0-30.5,0-61.1,0-91.6c0.6,0,1.2,0,1.8,0c22.3,0,44.6,0,66.9,0
		c2,0,2,0,1.8,1.9c-0.7,7.7-1.4,15.4-2.1,23c-0.9,10.4-1.9,20.7-2.8,31.1c-0.5,5.5-1,11-1.4,16.4c-0.1,1.5-0.5,2.3-2.2,2.7
		C365.4,477.6,344.8,483.1,324.3,488.7z"/>
	<path class="st5" d="M112.3,329.5c-0.5-0.6-0.2-1.3-0.2-2C112.4,328.1,112.4,328.8,112.3,329.5z"/>
	<path class="st5" d="M112,325.9c-0.5-0.6-0.2-1.4-0.2-2C112.1,324.5,112,325.2,112,325.9z"/>
	<path class="st5" d="M111.7,322.4c-0.5-0.6-0.2-1.4-0.2-2.1C111.8,321,111.7,321.7,111.7,322.4z"/>
	<path class="st5" d="M111,314.9c-0.5-0.6-0.2-1.3-0.2-2C111.1,313.5,111.1,314.2,111,314.9z"/>
	<path class="st5" d="M110.7,311.4c-0.5-0.6-0.2-1.3-0.2-2C110.8,310,110.7,310.7,110.7,311.4z"/>
	<path class="st5" d="M110.4,307.8c-0.5-0.6-0.2-1.4-0.2-2C110.5,306.4,110.4,307.1,110.4,307.8z"/>
	<path class="st5" d="M109.7,300.3c-0.5-0.6-0.2-1.3-0.2-2C109.8,299,109.8,299.7,109.7,300.3z"/>
	<path class="st5" d="M109.4,296.8c-0.5-0.6-0.2-1.3-0.2-2C109.5,295.4,109.4,296.1,109.4,296.8z"/>
	<path class="st5" d="M109.1,293.2c-0.5-0.6-0.2-1.4-0.2-2C109.2,291.8,109.1,292.5,109.1,293.2z"/>
	<path class="st5" d="M108.8,289.6c-0.5-0.6-0.2-1.4-0.2-2.1C108.9,288.2,108.8,288.9,108.8,289.6z"/>
	<path class="st5" d="M94.5,129.6c-0.5-0.6-0.2-1.4-0.2-2C94.6,128.2,94.5,128.9,94.5,129.6z"/>
	<path class="st5" d="M108.1,282.2c-0.5-0.6-0.2-1.3-0.2-2C108.2,280.8,108.2,281.5,108.1,282.2z"/>
	<path class="st5" d="M107.8,278.6c-0.5-0.6-0.2-1.3-0.2-2C107.9,277.2,107.8,277.9,107.8,278.6z"/>
	<path class="st5" d="M107.5,275.1c-0.5-0.6-0.2-1.4-0.2-2C107.6,273.7,107.5,274.4,107.5,275.1z"/>
	<path class="st5" d="M106.8,267.6c-0.5-0.6-0.2-1.3-0.2-2C106.9,266.2,106.9,266.9,106.8,267.6z"/>
	<path class="st5" d="M106.5,264.1c-0.5-0.6-0.2-1.3-0.2-2C106.6,262.7,106.5,263.4,106.5,264.1z"/>
	<path class="st5" d="M119.8,413.1c-0.5-0.6-0.2-1.3-0.2-2C119.8,411.7,119.8,412.4,119.8,413.1z"/>
	<path class="st5" d="M119.5,409.5c-0.5-0.6-0.2-1.3-0.2-2C119.5,408.1,119.5,408.8,119.5,409.5z"/>
	<path class="st5" d="M119.1,406c-0.5-0.6-0.2-1.4-0.2-2C119.2,404.6,119.2,405.3,119.1,406z"/>
	<path class="st5" d="M118.2,394.9c-0.5-0.6-0.2-1.3-0.2-2C118.2,393.6,118.2,394.3,118.2,394.9z"/>
	<path class="st5" d="M117.8,391.4c-0.5-0.6-0.2-1.4-0.2-2C117.9,390,117.9,390.7,117.8,391.4z"/>
	<path class="st5" d="M120.4,420.5c-0.5-0.6-0.2-1.4-0.2-2.1C120.5,419.1,120.5,419.8,120.4,420.5z"/>
	<path class="st5" d="M117.5,387.8c-0.5-0.6-0.2-1.4-0.2-2.1C117.6,386.4,117.6,387.1,117.5,387.8z"/>
	<path class="st5" d="M116.9,380.4c-0.5-0.6-0.2-1.3-0.2-2C116.9,379,116.9,379.7,116.9,380.4z"/>
	<path class="st5" d="M116.5,376.8c-0.5-0.6-0.2-1.3-0.2-2C116.6,375.4,116.6,376.1,116.5,376.8z"/>
	<path class="st5" d="M116.2,373.2c-0.5-0.6-0.2-1.4-0.2-2C116.3,371.8,116.3,372.5,116.2,373.2z"/>
	<path class="st5" d="M115.2,362.2c-0.5-0.6-0.2-1.3-0.2-2C115.3,360.8,115.3,361.5,115.2,362.2z"/>
	<path class="st5" d="M114.9,358.7c-0.5-0.6-0.2-1.4-0.2-2C115,357.3,115,358,114.9,358.7z"/>
	<path class="st5" d="M114.6,355.1c-0.5-0.6-0.2-1.4-0.2-2.1C114.7,353.7,114.6,354.4,114.6,355.1z"/>
	<path class="st5" d="M113.9,347.6c-0.5-0.6-0.2-1.3-0.2-2C114,346.3,114,347,113.9,347.6z"/>
	<path class="st5" d="M113.6,344.1c-0.5-0.6-0.2-1.3-0.2-2C113.7,342.7,113.7,343.4,113.6,344.1z"/>
	<path class="st5" d="M113.3,340.5c-0.5-0.6-0.2-1.4-0.2-2C113.4,339.1,113.3,339.8,113.3,340.5z"/>
	<path class="st5" d="M112.6,333.1c-0.5-0.6-0.2-1.3-0.2-2C112.7,331.7,112.7,332.4,112.6,333.1z"/>
	<path class="st5" d="M95.8,144.2c-0.5-0.6-0.2-1.4-0.2-2.1C95.9,142.8,95.8,143.5,95.8,144.2z"/>
	<path class="st5" d="M96.1,147.7c-0.5-0.6-0.2-1.4-0.2-2C96.2,146.3,96.2,147,96.1,147.7z"/>
	<path class="st5" d="M96.5,151.3c-0.5-0.6-0.2-1.3-0.2-2C96.5,149.9,96.5,150.6,96.5,151.3z"/>
	<path class="st5" d="M96.8,154.9c-0.5-0.6-0.2-1.3-0.2-2C96.8,153.5,96.8,154.2,96.8,154.9z"/>
	<path class="st5" d="M97.4,162.3c-0.5-0.6-0.2-1.4-0.2-2C97.5,160.9,97.5,161.6,97.4,162.3z"/>
	<path class="st5" d="M97.7,165.9c-0.5-0.6-0.2-1.3-0.2-2C97.8,164.5,97.8,165.2,97.7,165.9z"/>
	<path class="st5" d="M98.1,169.4c-0.5-0.6-0.2-1.3-0.2-2C98.1,168.1,98.1,168.8,98.1,169.4z"/>
	<path class="st5" d="M98.7,176.9c-0.5-0.6-0.2-1.4-0.2-2.1C98.8,175.5,98.8,176.2,98.7,176.9z"/>
	<path class="st5" d="M99,180.5c-0.5-0.6-0.2-1.4-0.2-2C99.1,179.1,99.1,179.8,99,180.5z"/>
	<path class="st5" d="M99.4,184c-0.5-0.6-0.2-1.3-0.2-2C99.4,182.6,99.4,183.3,99.4,184z"/>
	<path class="st5" d="M100.3,195c-0.5-0.6-0.2-1.4-0.2-2C100.4,193.6,100.4,194.3,100.3,195z"/>
	<path class="st5" d="M100.7,198.6c-0.5-0.6-0.2-1.3-0.2-2C100.7,197.2,100.7,197.9,100.7,198.6z"/>
	<path class="st5" d="M101,202.2c-0.5-0.6-0.2-1.3-0.2-2C101.1,200.8,101,201.5,101,202.2z"/>
	<path class="st5" d="M101.6,209.6c-0.5-0.6-0.2-1.4-0.2-2.1C101.7,208.2,101.7,208.9,101.6,209.6z"/>
	<path class="st5" d="M102,213.2c-0.5-0.6-0.2-1.4-0.2-2C102,211.8,102,212.5,102,213.2z"/>
	<path class="st5" d="M102.3,216.7c-0.5-0.6-0.2-1.3-0.2-2C102.4,215.4,102.3,216.1,102.3,216.7z"/>
	<path class="st5" d="M106.2,260.5c-0.5-0.6-0.2-1.4-0.2-2C106.3,259.1,106.2,259.8,106.2,260.5z"/>
	<path class="st5" d="M104.6,242.3c-0.5-0.6-0.2-1.4-0.2-2C104.6,240.9,104.6,241.6,104.6,242.3z"/>
	<path class="st5" d="M95.2,136.7c-0.5-0.6-0.2-1.3-0.2-2C95.2,135.3,95.2,136,95.2,136.7z"/>
	<path class="st5" d="M94.8,133.2c-0.5-0.6-0.2-1.3-0.2-2C94.9,131.8,94.9,132.5,94.8,133.2z"/>
	<path class="st5" d="M104.9,245.9c-0.5-0.6-0.2-1.4-0.2-2C105,244.5,104.9,245.2,104.9,245.9z"/>
	<path class="st5" d="M105.2,249.5c-0.5-0.6-0.2-1.3-0.2-2C105.3,248.1,105.2,248.8,105.2,249.5z"/>
	<path class="st5" d="M103.9,234.9c-0.5-0.6-0.2-1.3-0.2-2C104,233.5,103.9,234.2,103.9,234.9z"/>
	<path class="st5" d="M103.3,227.8c-0.5-0.6-0.2-1.4-0.2-2C103.3,226.4,103.3,227.1,103.3,227.8z"/>
	<path class="st5" d="M103.6,231.3c-0.5-0.6-0.2-1.3-0.2-2C103.7,229.9,103.6,230.6,103.6,231.3z"/>
	<path class="st5" d="M117.2,383.9c-0.5-0.5-0.2-1.2-0.2-1.7C117.3,382.7,117.2,383.3,117.2,383.9z"/>
	<path class="st5" d="M118.5,398.5c-0.5-0.5-0.2-1.2-0.2-1.7C118.6,397.3,118.5,397.9,118.5,398.5z"/>
	<path class="st5" d="M97.1,158.4c-0.5-0.5-0.2-1.1-0.2-1.7C97.2,157.2,97.1,157.8,97.1,158.4z"/>
	<path class="st5" d="M118.8,402.1c-0.5-0.5-0.2-1.1-0.2-1.7C118.9,400.9,118.8,401.5,118.8,402.1z"/>
	<path class="st5" d="M105.5,253c-0.5-0.5-0.2-1.2-0.2-1.7C105.6,251.8,105.6,252.4,105.5,253z"/>
	<path class="st5" d="M107.1,271.2c-0.5-0.5-0.2-1.2-0.2-1.7C107.2,270,107.2,270.6,107.1,271.2z"/>
	<path class="st5" d="M105.8,256.6c-0.5-0.5-0.2-1.1-0.2-1.7C105.9,255.4,105.9,256,105.8,256.6z"/>
	<path class="st5" d="M120.1,416.7c-0.5-0.5-0.2-1.2-0.2-1.7C120.2,415.5,120.1,416.1,120.1,416.7z"/>
	<path class="st5" d="M95.5,140.3c-0.5-0.5-0.2-1.2-0.2-1.7C95.6,139.1,95.5,139.7,95.5,140.3z"/>
	<path class="st5" d="M98.4,173c-0.5-0.5-0.2-1.2-0.2-1.7C98.5,171.8,98.4,172.4,98.4,173z"/>
	<path class="st5" d="M108.4,285.8c-0.5-0.5-0.2-1.2-0.2-1.7C108.5,284.6,108.5,285.2,108.4,285.8z"/>
	<path class="st5" d="M104.2,238.5c-0.5-0.5-0.2-1.2-0.2-1.7C104.3,237.3,104.3,237.9,104.2,238.5z"/>
	<path class="st5" d="M115.9,369.3c-0.5-0.5-0.2-1.1-0.2-1.7C116,368.2,115.9,368.8,115.9,369.3z"/>
	<path class="st5" d="M115.6,365.8c-0.5-0.5-0.2-1.2-0.2-1.7C115.7,364.6,115.6,365.2,115.6,365.8z"/>
	<path class="st5" d="M99.7,187.6c-0.5-0.5-0.2-1.2-0.2-1.7C99.8,186.4,99.7,187,99.7,187.6z"/>
	<path class="st5" d="M100,191.1c-0.5-0.5-0.2-1.1-0.2-1.7C100.1,190,100,190.6,100,191.1z"/>
	<path class="st5" d="M114.3,351.2c-0.5-0.5-0.2-1.2-0.2-1.7C114.3,350,114.3,350.6,114.3,351.2z"/>
	<path class="st5" d="M110.1,303.9c-0.5-0.5-0.2-1.1-0.2-1.7C110.1,302.7,110.1,303.3,110.1,303.9z"/>
	<path class="st5" d="M101.3,205.7c-0.5-0.5-0.2-1.2-0.2-1.7C101.4,204.5,101.3,205.1,101.3,205.7z"/>
	<path class="st5" d="M113,336.6c-0.5-0.5-0.2-1.1-0.2-1.7C113,335.4,113,336,113,336.6z"/>
	<path class="st5" d="M102.9,223.9c-0.5-0.5-0.2-1.1-0.2-1.7C103,222.7,103,223.3,102.9,223.9z"/>
	<path class="st5" d="M102.6,220.3c-0.5-0.5-0.2-1.2-0.2-1.7C102.7,219.1,102.6,219.7,102.6,220.3z"/>
	<path class="st5" d="M111.4,318.5c-0.5-0.5-0.2-1.2-0.2-1.7C111.4,317.3,111.4,317.9,111.4,318.5z"/>
	<path class="st5" d="M260.4,29.2c0.5,0.5,0.2,1.1,0.2,1.6c0,18.2,0,36.4,0,54.7c0,0.6-0.2,1.3,0.2,1.9c-0.8-0.4-0.5-1.1-0.5-1.7
		C260.4,66.9,260.4,48.1,260.4,29.2z"/>
	<path class="st5" d="M166.3,87.4c0.3-0.6,0.2-1.3,0.2-1.9c0-8.5,0-17.1,0-25.6c0-0.5-0.4-1.2,0.3-1.6c0,9.1,0,18.3,0,27.4
		C166.8,86.3,167.1,87,166.3,87.4z"/>
	<path class="st3" d="M323.6,280.5c0-19.1,0-38.2,0-57.3c0.5,0,1.1-0.1,1.6-0.1c46.8,0,93.6,0,140.4,0c1.5,0,2.1,0.1,1.9,1.9
		c-1.3,12.7-2.4,25.3-3.6,38c-0.5,5.2-1,10.4-1.4,15.6c-0.1,1.4-0.5,1.9-2,1.9c-44.9,0-89.8,0-134.8,0c-0.6,0-1.3,0-1.9,0.1
		C323.8,280.7,323.7,280.7,323.6,280.5z"/>
	<path class="st6" d="M323.6,280.5c0.1,0,0.2,0.1,0.3,0.1c0,18.9,0,37.8,0,56.7c0,1.6-0.5,2-2,2c-24.6,0-49.2,0-73.8,0
		c-0.7-2.8-0.7-5.8-0.9-8.6c-1.1-11.8-2.2-23.5-3.2-35.3c-0.4-4.6-0.8-9.1-1.2-13.7c-0.1-0.8,0.1-1.1,0.9-1c0.4,0,0.8,0,1.1,0
		c25.6,0,51.3,0,76.9,0C322.3,280.6,323,280.5,323.6,280.5z"/>
</g>
</svg>
