<?xml version="1.0" encoding="utf-8"?>
<!-- Generator: Adobe Illustrator 22.0.1, SVG Export Plug-In . SVG Version: 6.00 Build 0)  -->
<svg version="1.1" id="Layer_1" xmlns="http://www.w3.org/2000/svg" xmlns:xlink="http://www.w3.org/1999/xlink" x="0px" y="0px"
	 viewBox="0 0 1346.1 769.5" style="enable-background:new 0 0 1346.1 769.5;" xml:space="preserve">
<style type="text/css">
	.st0{fill:#DD2A62;}
	.st1{fill:#9B0A37;}
	.st2{fill:#010101;}
	.st3{fill:#FCD5C7;}
	.st4{fill:#E9BEB1;}
	.st5{fill:#C3A097;}
	.st6{fill:#E1F1E6;}
</style>
<rect class="st0" width="1346.1" height="769.5"/>
<g>
	<circle class="st1" cx="872.1" cy="372.3" r="250.1"/>
	<g>
		<path class="st2" d="M956.1,402.3V214.7c0-14.3-4.8-27.4-13-37.8v-65.6l-22,48c-8-3.8-17-6-26.4-6h-45c-10.6,0-20.5,2.7-29.2,7.4
			l-21.4-46.4v65.4c-6.9,9.9-11,22-11,35.1v187.5h-67.5v137l151.5,94l151.5-94v-137L956.1,402.3L956.1,402.3z"/>
		<path class="st2" d="M872.1,321.3v73c-11.4-1-22.5-6-30.9-15l-15.8-16.8l-17.6-63.2h33.1L872.1,321.3z"/>
		<path class="st3" d="M872.1,321.3v73c-11.4-1-22.5-6-30.9-15l-15.8-16.8l-17.6-63.2h33.1L872.1,321.3z"/>
		<path class="st4" d="M872.1,321l-0.1,73c-11.4-1-22.4-6-30.9-15l-15.8-16.8L807.7,299h33.1L872.1,321z"/>
		<path class="st3" d="M872.1,321l0.1,73c11.4-1,22.4-6,30.9-15l15.8-16.8l17.6-63.2h-33.1L872.1,321z"/>
		<polyline class="st5" points="845.6,344.3 872.6,339.3 894.6,344.3 		"/>
		<path class="st6" d="M851,263.3c-2.4,2-11.4,7-17.8,7c-15.9,0-21.6-19-21.6-19L851,263.3z"/>
		<path class="st6" d="M891.2,263.3c2.4,2,11.4,7,17.8,7c15.9,0,21.6-19,21.6-19L891.2,263.3z"/>
	</g>
	<path class="st2" d="M1004.7,657.5c0,0.2,0.1,0.4,0.1,0.6l-0.8-0.9L1004.7,657.5z"/>
</g>
</svg>
