<?xml version="1.0" encoding="utf-8"?>
<!-- Generator: Adobe Illustrator 22.0.1, SVG Export Plug-In . SVG Version: 6.00 Build 0)  -->
<svg version="1.1" id="Layer_1" xmlns="http://www.w3.org/2000/svg" xmlns:xlink="http://www.w3.org/1999/xlink" x="0px" y="0px"
	 viewBox="0 0 648 648" style="enable-background:new 0 0 648 648;" xml:space="preserve">
<style type="text/css">
	.st0{fill:#4A494A;}
	.st1{fill:#676767;}
	.st2{fill:#010101;}
	.st3{fill:#FCD5C7;}
	.st4{fill:#E9BEB1;}
	.st5{fill:#C3A097;}
	.st6{fill:#E1F1E6;}
</style>
<rect class="st0" width="648" height="648"/>
<g>
	<circle class="st1" cx="324" cy="311.6" r="250.1"/>
	<g>
		<path class="st2" d="M408,341.6V154c0-14.3-4.8-27.4-13-37.8V50.6l-22,48c-8-3.8-17-6-26.4-6h-45c-10.6,0-20.5,2.7-29.2,7.4
			L251,53.6v65.4c-6.9,9.9-11,22-11,35.1v187.5h-67.5v137l151.5,94l151.5-94v-137H408z"/>
		<path class="st2" d="M324,260.6v73c-11.4-1-22.5-6-30.9-15l-15.8-16.8l-17.6-63.2h33.1L324,260.6z"/>
		<path class="st3" d="M324,260.6v73c-11.4-1-22.5-6-30.9-15l-15.8-16.8l-17.6-63.2h33.1L324,260.6z"/>
		<path class="st4" d="M324,260.3l-0.1,73c-11.4-1-22.4-6-30.9-15l-15.8-16.8l-17.6-63.2l33.1,0L324,260.3z"/>
		<path class="st3" d="M324,260.3l0.1,73c11.4-1,22.4-6,30.9-15l15.8-16.8l17.6-63.2l-33.1,0L324,260.3z"/>
		<polyline class="st5" points="297.5,283.6 324.5,278.6 346.5,283.6 		"/>
		<path class="st6" d="M302.9,202.6c-2.4,2-11.4,7-17.8,7c-15.9,0-21.6-19-21.6-19L302.9,202.6z"/>
		<path class="st6" d="M343.1,202.6c2.4,2,11.4,7,17.8,7c15.9,0,21.6-19,21.6-19L343.1,202.6z"/>
	</g>
	<path class="st2" d="M456.6,596.8c0,0.2,0.1,0.4,0.1,0.6l-0.8-0.9L456.6,596.8z"/>
</g>
</svg>
