<?xml version="1.0" encoding="utf-8"?>
<!-- Generator: Adobe Illustrator 22.0.1, SVG Export Plug-In . SVG Version: 6.00 Build 0)  -->
<svg version="1.1" id="Layer_1" xmlns="http://www.w3.org/2000/svg" xmlns:xlink="http://www.w3.org/1999/xlink" x="0px" y="0px"
	 viewBox="0 0 648 648" style="enable-background:new 0 0 648 648;" xml:space="preserve">
<style type="text/css">
	.st0{fill:#455862;}
	.st1{fill:#60798A;}
	.st2{fill:#E9BEB1;}
	.st3{fill:#010101;}
	.st4{fill:#1A2B31;}
	.st5{fill:#233840;}
	.st6{fill:#FCD5C7;}
	.st7{fill:#BF282D;}
	.st8{fill:#E1F1E6;}
</style>
<rect class="st0" width="648" height="648"/>
<g>
	<circle class="st1" cx="324" cy="314" r="250.1"/>
	<g>
		<path class="st2" d="M307.9,505.9l-71.6-37.5c0,0,0,0,0,0c0,0,0,0,0,0l0,0c-1.5-1.9-3-3.9-4.5-5.9c-0.8-1-1.5-2.1-2.2-3.2
			c-0.3-0.4-0.6-0.9-0.9-1.3c-0.7-1.1-1.4-2.1-2-3.2c-0.2-0.4-0.5-0.8-0.7-1.2c-0.7-1.3-1.4-2.5-2.1-3.8c-0.4-0.8-0.8-1.5-1.2-2.3
			c-0.3-0.7-0.6-1.3-1-2c-0.5-1.1-1-2.2-1.5-3.2c-0.3-0.6-0.6-1.3-0.8-1.9c-0.3-0.7-0.6-1.5-0.9-2.2c-0.1-0.2-0.2-0.4-0.2-0.6
			c-0.2-0.5-0.4-1.1-0.6-1.6c-0.1-0.3-0.2-0.7-0.4-1c-0.2-0.6-0.5-1.3-0.7-1.9c-0.2-0.6-0.4-1.2-0.6-1.9c0,0,0-0.1,0-0.1
			c-0.1-0.4-0.2-0.8-0.3-1.1c-0.4-1.4-0.8-2.8-1.2-4.2c-0.1-0.4-0.2-0.7-0.3-1.1c-0.1-0.4-0.2-0.9-0.3-1.3c-0.1-0.4-0.2-0.8-0.3-1.2
			c0-0.1,0-0.2-0.1-0.3c-0.2-1-0.4-1.9-0.6-2.9c-0.1-0.3-0.1-0.7-0.2-1c-0.1-0.4-0.1-0.8-0.2-1.2c-0.1-0.3-0.1-0.6-0.2-0.9
			c-0.1-0.5-0.2-1-0.2-1.4c0-0.1,0-0.3-0.1-0.4c-0.1-0.6-0.2-1.2-0.3-1.8c-0.1-0.8-0.2-1.6-0.3-2.4c0-0.2-0.1-0.4-0.1-0.5
			c-0.1-0.8-0.2-1.6-0.3-2.5c1.5,0.1,3,0.1,4.5,0.1c57.5,0,78.1-31.4,78.1-100.3c0-7.1-0.3-14.1-0.9-21c4.9-1.4,9.9-2.5,15-3.2
			V505.9z"/>
		<path class="st3" d="M319.2,143.6v201.9c-26.2-0.3-54.7-36-64.2-51.8c-3.7-6.2-12.2-43.5-14.5-75.3
			C273.3,170.2,299.4,150.1,319.2,143.6z"/>
		<g>
			<path class="st4" d="M410.8,405.1v63.5l-2.5,1.5L324,522.4l-83.8-52l-4-2.1c0,0,0,0.1,0.1,0.1c0,0,0,0-0.1-0.1l0,0
				c-1.5-1.9-3-3.9-4.5-5.9c-0.8-1-1.5-2.1-2.2-3.2c-0.3-0.5-0.6-0.9-0.9-1.4c-0.7-1.1-1.4-2.1-2-3.2c-0.2-0.4-0.4-0.8-0.7-1.2
				c-0.7-1.3-1.4-2.5-2.1-3.8c-0.4-0.8-0.8-1.5-1.2-2.3c-0.3-0.6-0.6-1.3-0.9-2c-0.5-1.1-1-2.2-1.5-3.2c-0.3-0.6-0.6-1.3-0.8-1.9
				c-0.3-0.7-0.6-1.4-0.9-2.2c-0.1-0.2-0.2-0.4-0.2-0.6c-0.2-0.5-0.4-1.1-0.6-1.6c-0.1-0.3-0.2-0.7-0.4-1c-0.2-0.6-0.5-1.3-0.7-1.9
				c-0.2-0.6-0.4-1.2-0.6-1.9c0,0,0-0.1,0-0.1c-0.1-0.4-0.2-0.8-0.3-1.2c-0.4-1.4-0.8-2.8-1.2-4.2c-0.1-0.4-0.2-0.7-0.3-1.1
				c-0.1-0.4-0.2-0.8-0.3-1.3c-0.1-0.4-0.2-0.8-0.3-1.2c0-0.1,0-0.2-0.1-0.3c-0.2-1-0.4-1.9-0.6-2.9c-0.1-0.3-0.1-0.7-0.2-1
				c-0.1-0.4-0.1-0.8-0.2-1.2c-0.1-0.3-0.1-0.6-0.2-0.9c-0.1-0.5-0.2-1-0.2-1.4c0-0.1-0.1-0.3-0.1-0.4c-0.1-0.6-0.2-1.2-0.3-1.9
				c-0.1-0.8-0.2-1.6-0.3-2.4c0-0.2,0-0.4-0.1-0.5c-0.1-0.8-0.2-1.6-0.3-2.5c1.5,0.1,3,0.1,4.5,0.1c7.9,0,15.1-0.6,21.7-1.8
				c13.2-2.4,23.8-7.4,32-14.9c17.3-15.9,24.4-43.3,24.4-83.6c0-7.1-0.3-14.1-0.9-21c9.8-2.8,20.2-4.3,30.9-4.3h0.5
				c10.7,0,21.1,1.5,30.9,4.3c-0.6,6.9-0.9,13.9-0.9,21c0,40.3,7,67.8,24.4,83.6C386.9,397.7,397.5,402.7,410.8,405.1z"/>
			<path class="st4" d="M436.9,406.8c-1.4,14.9-5.6,28.9-12.1,41.5c-3.7,7.2-8,13.9-13.1,20.1l-3.4,1.8l2.5-1.5v-63.5
				c6.5,1.2,13.7,1.8,21.6,1.8C433.9,406.9,435.4,406.8,436.9,406.8z"/>
		</g>
		<g>
			<path class="st5" d="M307.9,505.9l-71.6-37.5c0,0,0,0,0,0c0,0,0,0,0,0l0,0c-1.5-1.9-3-3.9-4.5-5.9c-0.8-1-1.5-2.1-2.2-3.2
				c-0.3-0.4-0.6-0.9-0.9-1.3c-0.7-1.1-1.4-2.1-2-3.2c-0.2-0.4-0.5-0.8-0.7-1.2c-0.7-1.3-1.4-2.5-2.1-3.8c-0.4-0.8-0.8-1.5-1.2-2.3
				c-0.3-0.7-0.6-1.3-1-2c-0.5-1.1-1-2.2-1.5-3.2c-0.3-0.6-0.6-1.3-0.8-1.9c-0.3-0.7-0.6-1.5-0.9-2.2c-0.1-0.2-0.2-0.4-0.2-0.6
				c-0.2-0.5-0.4-1.1-0.6-1.6c-0.1-0.3-0.2-0.7-0.4-1c-0.2-0.6-0.5-1.3-0.7-1.9c-0.2-0.6-0.4-1.2-0.6-1.9c0,0,0-0.1,0-0.1
				c-0.1-0.4-0.2-0.8-0.3-1.1c-0.4-1.4-0.8-2.8-1.2-4.2c-0.1-0.4-0.2-0.7-0.3-1.1c-0.1-0.4-0.2-0.9-0.3-1.3
				c-0.1-0.4-0.2-0.8-0.3-1.2c0-0.1,0-0.2-0.1-0.3c-0.2-1-0.4-1.9-0.6-2.9c-0.1-0.3-0.1-0.7-0.2-1c-0.1-0.4-0.1-0.8-0.2-1.2
				c-0.1-0.3-0.1-0.6-0.2-0.9c-0.1-0.5-0.2-1-0.2-1.4c0-0.1,0-0.3-0.1-0.4c-0.1-0.6-0.2-1.2-0.3-1.8c-0.1-0.8-0.2-1.6-0.3-2.4
				c0-0.2-0.1-0.4-0.1-0.5c-0.1-0.8-0.2-1.6-0.3-2.5c1.5,0.1,3,0.1,4.5,0.1c57.5,0,78.1-31.4,78.1-100.3c0-7.1-0.3-14.1-0.9-21
				c4.9-1.4,9.9-2.5,15-3.2V505.9z"/>
		</g>
		<path class="st6" d="M319.2,143.6v201.9c-26.2-0.3-54.7-36-64.2-51.8c-3.7-6.2-12.2-43.5-14.5-75.3
			C273.3,170.2,299.4,150.1,319.2,143.6z"/>
		<path class="st6" d="M398.5,217.6l0,7.3c-1.3,14.1-3.7,28.7-6.2,40.9c-2.9,14-5.9,24.8-7.7,27.9c-3.2,5.3-8.6,12.9-15.3,20.7
			c-12.9,14.8-30.7,30.2-47.6,31.1c-0.4,0-0.8,0-1.2,0c-0.3,0-0.6,0-0.9,0c-26.2,0-55-35.9-64.5-51.8c-3.7-6.2-12.2-43.5-14.5-75.3
			C326,92.6,366.4,158,366.4,158C375.8,155.5,398.5,217.6,398.5,217.6z"/>
		<path class="st2" d="M319,143.3v202.2l0,0c-26.2,0-55.3-36-64.8-51.8c-3.7-6.2-12.2-43.5-14.5-75.3
			C272.8,169.7,299.1,149.6,319,143.3z"/>
		<path class="st4" d="M400.2,217.3c0,6.8-9.1,58.2-9.1,58.2l-61.8,12.2l-19.3-1l-61.8-10.2l-8.3-38.5c-0.1-0.2-0.1-0.4-0.1-0.7
			c-1.1-6.5-1.7-13.2-1.7-20.1c0-54.8,36.3-99.2,81.1-99.2S400.2,162.5,400.2,217.3z"/>
		<polygon class="st4" points="319.1,293.9 303.5,283.8 321.5,286.8 331,286.5 		"/>
		<path class="st7" d="M320.8,311l-27.1-8.6c14.8,17.3,33.3,24.7,51.8,7.4h0"/>
		<path class="st8" d="M291.7,250.6c-12.7,0.8-25.3-3.7-34.4-12.6c-1.4-1.4-2.3-2.4-2.1-2.7c0.2-0.5,1.7-0.5,4-0.2
			c-1.9-1.2-2.9-2.2-2.6-2.6c0.8-1.3,11.5,1.6,23.7,6.5c11.4,4.5,20.7,11,20.7,11C301.1,250,296.9,250.3,291.7,250.6z"/>
		<path class="st8" d="M345.4,250.6c12.7,0.8,25.3-3.7,34.4-12.6c1.4-1.4,2.3-2.4,2.1-2.7c-0.2-0.5-1.7-0.5-4-0.2
			c1.9-1.2,2.9-2.2,2.6-2.6c-0.8-1.3-11.5,1.6-23.7,6.5c-11.4,4.5-20.7,11-20.7,11C336.1,250,340.3,250.3,345.4,250.6z"/>
		<g>
			<polygon class="st4" points="259.5,105.6 259.5,168.9 280.2,150.7 			"/>
		</g>
		<g>
			<polygon class="st4" points="378.9,105.6 378.9,168.9 358.2,150.7 			"/>
		</g>
	</g>
</g>
</svg>
