<?xml version="1.0" encoding="utf-8"?>
<!-- Generator: Adobe Illustrator 22.0.1, SVG Export Plug-In . SVG Version: 6.00 Build 0)  -->
<svg version="1.1" id="Layer_1" xmlns="http://www.w3.org/2000/svg" xmlns:xlink="http://www.w3.org/1999/xlink" x="0px" y="0px"
	 viewBox="0 0 648 648" style="enable-background:new 0 0 648 648;" xml:space="preserve">
<style type="text/css">
	.st0{fill:#825B7A;}
	.st1{fill:#CC799F;}
	.st2{fill:#A41D4B;}
	.st3{fill:#010101;}
	.st4{fill:#FCD5C7;}
	.st5{fill:#FEF3F8;}
	.st6{fill:#EFE6E9;}
	.st7{fill:#C3A097;}
	.st8{fill:#BF282D;}
	.st9{fill:#E1F1E6;}
	.st10{fill:#6E2148;}
</style>
<rect class="st0" width="648" height="648"/>
<g>
	<circle class="st1" cx="324" cy="314" r="250.1"/>
	<g>
		<g>
			<path class="st2" d="M411,477.1c5-6.2,9.4-12.9,13.1-20.1c6.5-12.6,10.7-26.7,12.1-41.5c-1.5,0.1-3,0.1-4.5,0.1
				c-7.9,0-15.1-0.6-21.6-1.8c-13.3-2.4-23.9-7.3-32.1-14.9c-17.3-15.9-24.4-43.3-24.4-83.6c0-7.1,0.3-14.1,0.9-21
				c-9.7-2.8-19.9-4.3-30.5-4.3v240.8l83.6-51.9L411,477.1z"/>
			<path class="st3" d="M237,477.1c-5-6.2-9.4-12.9-13.1-20.1c-6.5-12.6-10.7-26.7-12.1-41.5c1.5,0.1,3,0.1,4.5,0.1
				c7.9,0,15.1-0.6,21.6-1.8c13.3-2.4,23.9-7.3,32.1-14.9c17.3-15.9,24.4-43.3,24.4-83.6c0-7.1-0.3-14.1-0.9-21
				c9.7-2.8,19.9-4.3,30.5-4.3v240.8l-83.6-51.9L237,477.1z"/>
		</g>
		<path class="st3" d="M324.6,163v201.9c-26.2-0.3-54.7-36-64.2-51.8c-3.7-6.2-12.2-43.5-14.5-75.3
			C278.7,189.7,304.9,169.5,324.6,163z"/>
		<path class="st4" d="M324.6,163v201.9c-26.2-0.3-54.7-36-64.2-51.8c-3.7-6.2-12.2-43.5-14.5-75.3
			C278.7,189.7,304.9,169.5,324.6,163z"/>
		<path class="st5" d="M403,210l0,27.1l0,7.3c-1.3,14.1-3.7,28.7-6.2,40.9c-2.9,14-5.9,24.8-7.7,27.9c-3.2,5.3-8.6,12.9-15.3,20.7
			c-12.9,14.8-30.7,30.2-47.6,31.1c-0.4,0-0.8,0-1.2,0c-0.3,0-0.6,0-0.9,0c-26.2,0-55-35.9-64.5-51.8c-3.7-6.2-12.2-43.5-14.5-75.3
			c85.5-125.8,125.9-60.5,125.9-60.5c9.3-2.5,24.7-1.5,30.5,20C402.4,201.5,402.9,205.7,403,210z"/>
		<path class="st6" d="M324.5,159.9l0.9,205c-30.2,1.4-59.2-37.3-66.7-53.3c-3.1-6.5-11.2-44.9-13.5-76.6
			C252.5,184.8,264.9,163,324.5,159.9z"/>
		<polygon class="st7" points="324.3,313.4 319.4,310.2 314.6,307 324.3,307 334.1,307 329.2,310.2 		"/>
		<path class="st8" d="M352.2,321.9c-7.9,9.2-16.8,15.6-26.3,17c-0.1,0-0.2,0-0.3,0c-1.3,0.1-3.1,0.2-6.9-0.9
			c-4.7-1.4-22.3-16.1-22.3-16.1l28.7,8.6l0,0l0.5-0.2l0.3-0.1L352.2,321.9z"/>
		<path class="st3" d="M365.3,237.2c-12.9,7.7-40.7,26.2-40.7,26.2s-27.8-18.5-40.7-26.2c-8.6-5.2-40.7-5.6-33.7,19.5
			c7,25,21.2,41,36.7,41.7c15.5,0.7,12.7-6.3,37.7-7.6c25,1.4,22.2,8.3,37.7,7.6c15.5-0.7,29.7-16.7,36.7-41.7
			C406,231.7,373.9,232.1,365.3,237.2z"/>
		<path class="st9" d="M307.8,269.5c0,0-4.2,0.3-9.3,0.7c-12.7,0.8-25.3-3.7-34.4-12.6c-1.4-1.4-2.3-2.4-2.1-2.7
			c0.2-0.5,1.7-0.5,4-0.2c-1.9-1.2-2.9-2.2-2.6-2.6c0.8-1.3,11.5,1.6,23.7,6.5C298.5,263.1,307.8,269.5,307.8,269.5z"/>
		<path class="st9" d="M341.4,269.5c0,0,4.2,0.3,9.3,0.7c12.7,0.8,25.3-3.7,34.4-12.6c1.4-1.4,2.3-2.4,2.1-2.7
			c-0.2-0.5-1.7-0.5-4-0.2c1.9-1.2,2.9-2.2,2.6-2.6c-0.8-1.3-11.5,1.6-23.7,6.5C350.8,263.1,341.4,269.5,341.4,269.5z"/>
		<g>
			<path class="st10" d="M177.3,173.8c-5.2,1-8.4,1.9-8.4,1.9s-0.2-2.3,0.9-6.4C172.8,169.8,175.5,171.3,177.3,173.8z"/>
			<path class="st5" d="M172.8,192c-6,2.8-13.2,0.2-15.9-5.9c-2.8-6-0.1-13.2,5.9-16c2.3-1.1,4.7-1.3,7.1-0.9
				c2.9,0.5,5.6,2.1,7.5,4.5c0.5,0.7,1,1.5,1.4,2.3C181.5,182.1,178.9,189.2,172.8,192z"/>
			<g>
				<path class="st2" d="M324.3,135.4c-12.7,0-24.7,3.1-35.4,8.7c0,0,0,0,0,0s-73.6-31.7-96-9.9c-15.9,15.5-21.3,28-23.1,35.1
					c2.9,0.5,5.6,2.1,7.5,4.5c15.7-2.9,49.8-6.1,71.7,15.8c-3.9,10.1-6,21.2-6,32.8c0,7.4,0.9,14.5,2.5,21.3
					c8.9-37.7,40.8-65.6,78.8-65.6c0.5,0,0.9,0,1.4,0v-42.6C325.2,135.5,324.8,135.4,324.3,135.4z"/>
				<path class="st2" d="M326.1,135.5c-0.1,0-0.3,0-0.4,0v42.6c0.1,0,0.3,0,0.4,0V135.5z"/>
				<path class="st3" d="M403.2,243.7c1.6-6.8,2.5-14,2.5-21.3c0-10.1-1.6-19.8-4.6-28.8c0.7-0.6,1.4-1.2,2.1-1.9
					c21.9-21.9,56-18.7,71.7-15.8c1.9-2.4,4.6-4,7.5-4.5c-1.8-7.1-7.2-19.6-23.1-35.1c-21.9-21.3-92.8,8.6-95.9,9.9
					c-11.1-6.5-23.8-10.3-37.3-10.6v42.6C363.3,178.9,394.4,206.6,403.2,243.7z"/>
				<path class="st5" d="M483.2,177.7c0,0-3.2-0.9-8.4-1.9c-0.5,0.7-1,1.5-1.4,2.3c-2.8,6-0.2,13.2,5.9,15.9
					c6,2.8,13.1,0.2,15.9-5.9c2.8-6,0.2-13.2-5.9-15.9c-2.3-1.1-4.7-1.3-7-0.9C483.3,175.4,483.2,177.7,483.2,177.7z"/>
				<path class="st5" d="M474.8,175.8c5.2,1,8.4,1.9,8.4,1.9s0.2-2.3-0.9-6.4C479.4,171.8,476.7,173.4,474.8,175.8z"/>
			</g>
		</g>
	</g>
</g>
</svg>
