<?xml version="1.0" encoding="utf-8"?>
<!-- Generator: Adobe Illustrator 22.0.1, SVG Export Plug-In . SVG Version: 6.00 Build 0)  -->
<svg version="1.1" id="Layer_1" xmlns="http://www.w3.org/2000/svg" xmlns:xlink="http://www.w3.org/1999/xlink" x="0px" y="0px"
	 viewBox="0 0 648 648" style="enable-background:new 0 0 648 648;" xml:space="preserve">
<style type="text/css">
	.st0{fill:#735874;}
	.st1{fill:#E9BEB1;}
	.st2{fill:#9A719A;}
	.st3{fill:#010101;}
	.st4{fill:#66308E;}
	.st5{fill:#D4CDD0;}
	.st6{fill:#FEF3F8;}
	.st7{fill:#EFE6E9;}
	.st8{fill:#1A2B31;}
	.st9{fill:#E9CC7A;}
	.st10{fill:#1C4F27;}
	.st11{fill:#E9CC7A;stroke:#AB344E;stroke-width:2;stroke-miterlimit:10;}
</style>
<rect class="st0" width="648" height="648"/>
<g>
	<path class="st1" d="M257.6,267.9v0.2c-0.3,0-0.6-0.1-0.9-0.1C257,267.9,257.3,267.9,257.6,267.9z"/>
	<path class="st1" d="M256.7,268c-0.3,0-0.6,0.1-1,0.1v-0.2C256.1,267.9,256.4,267.9,256.7,268z"/>
	<circle class="st2" cx="324" cy="312.9" r="250.1"/>
	<path class="st3" d="M324.3,584.6c0,0.2,0.1,0.4,0.1,0.6l-0.7-0.9L324.3,584.6z"/>
	<polygon class="st4" points="466.3,488.3 324,576.6 181.7,488.3 181.7,359.6 466.3,359.6 	"/>
	<path class="st5" d="M383.4,260v98l-1.3,2.4c-29.6,55.7-89.1,54.5-117.6-2.4l0,0v-98H383.4z"/>
	<polygon class="st6" points="411.3,228.7 359.6,348.3 289.1,348.3 240.1,228.7 233.1,98.3 415.5,98.3 	"/>
	<polygon class="st7" points="325.3,98.3 325.3,348.3 289.3,348.3 240.3,228.7 233.3,98.3 	"/>
	<path class="st8" d="M312.9,202.2c-3.1,2.6-14.8,9.1-23.1,9.1c-20.7,0-28.1-24.7-28.1-24.7L312.9,202.2z"/>
	<path class="st9" d="M302.5,202.7c-2,1.6-9.3,5.7-14.5,5.7c-13,0-17.7-15.5-17.7-15.5L302.5,202.7z"/>
	<path class="st8" d="M337.7,202.2c3.1,2.6,14.8,9.1,23.1,9.1c20.7,0,28.1-24.7,28.1-24.7L337.7,202.2z"/>
	<path class="st9" d="M348.1,202.7c2,1.6,9.3,5.7,14.5,5.7c13,0,17.7-15.5,17.7-15.5L348.1,202.7z"/>
	<polygon class="st10" points="324.3,144.7 233.1,97.8 324.3,97.8 411.3,97.8 	"/>
	<polygon class="st6" points="325.3,202.1 332.1,229.8 338.9,257.5 325.3,257.5 311.7,257.5 318.5,229.8 	"/>
	<path class="st10" d="M289.1,126.1c0,0-58.4-35.7-50.7,69.6l-37.1-85.7c0,0,15.8,13.3,31.8-12.2h28.2L289.1,126.1z"/>
	<path class="st10" d="M357.1,126.8c0,0,62.9-36.5,55.2,69.9l34.3-86.6c0,0-15.2,13.5-31.2-12.3h-28.8L357.1,126.8z"/>
	<path class="st10" d="M287.4,66.5c0,0-33.1,50.9,27.2,65.5l35.2-33.7C349.8,98.3,285.4,93.5,287.4,66.5z"/>
	<path class="st11" d="M265.9,249L265.9,249c35.1,26.8,83.8,26.8,118.8,0l0,0c0,0-11,32.6-36,58.8c-14.1,14.9-31.9,14.1-46.9,0
		C277.6,285,265.9,249,265.9,249z"/>
</g>
</svg>
