<?xml version="1.0" encoding="utf-8"?>
<!-- Generator: Adobe Illustrator 22.0.1, SVG Export Plug-In . SVG Version: 6.00 Build 0)  -->
<svg version="1.1" id="Layer_1" xmlns="http://www.w3.org/2000/svg" xmlns:xlink="http://www.w3.org/1999/xlink" x="0px" y="0px"
	 viewBox="0 0 648 648" style="enable-background:new 0 0 648 648;" xml:space="preserve">
<style type="text/css">
	.st0{fill:#6D7F57;}
	.st1{fill:#87A36C;}
	.st2{fill:#4E7F4E;}
	.st3{fill:#1C4F27;}
	.st4{fill:#E9BEB1;}
	.st5{fill:#010101;}
	.st6{fill:#8B1D5A;}
	.st7{fill:#AB344E;}
	.st8{fill:#FCD5C7;}
	.st9{fill:#C3A097;}
	.st10{fill:#BF282D;}
	.st11{fill:#2A2B2A;}
	.st12{fill:#231F20;}
</style>
<rect class="st0" width="648" height="648"/>
<g>
	<circle class="st1" cx="324" cy="314" r="250.1"/>
	<g>
		<path class="st2" d="M312.2,533.8l4.5,2.8l-2.9-1.5l0,0l-79.2-41l0,0l0,0l-1.7-0.9l0,0l-3.8-2c0.3-0.9,0.7-1.9,1.1-2.9
			c0.1-0.2,0.2-0.4,0.3-0.7c0.2-0.5,0.5-1.1,0.7-1.7c0.1-0.1,0.1-0.3,0.2-0.4c0.1-0.1,0.1-0.3,0.2-0.4l0,0L312.2,533.8z"/>
		<path class="st2" d="M420,425.9c-0.3,0-0.7-0.1-1-0.1s-0.5-0.1-0.8-0.1C418.8,425.7,419.4,425.8,420,425.9z"/>
		<polygon class="st3" points="321.1,539.2 321.1,539.2 315.7,536.4 315.6,536.4 311.1,533.6 310.5,533.3 313.8,535 313.8,535 
			316.7,536.5 316.8,536.6 		"/>
		<path class="st3" d="M312.2,533.8l4.5,2.8l-2.9-1.5l0,0l-79.2-41l0,0l0,0l-1.7-0.9l0,0l-3.8-2c0.3-0.9,0.7-1.9,1.1-2.9
			c0.1-0.2,0.2-0.4,0.3-0.7c0.2-0.5,0.5-1.1,0.7-1.7c0.1-0.1,0.1-0.3,0.2-0.4c0.1-0.1,0.1-0.3,0.2-0.4l0,0L312.2,533.8z"/>
		<path class="st4" d="M216,428.8c-0.2,0-0.4,0-0.5,0l0,0C215.6,428.8,215.8,428.8,216,428.8z"/>
		<path class="st4" d="M220.1,451.8c-0.4-1.4-0.8-2.8-1.2-4.2c-0.1-0.4-0.2-0.7-0.3-1.1s-0.2-0.9-0.3-1.3c0-0.1,0-0.1,0-0.2
			c0,0.1,0,0.1,0.1,0.2c0.1,0.4,0.2,0.9,0.3,1.3s0.2,0.7,0.3,1.1C219.2,449.1,219.6,450.5,220.1,451.8z"/>
		<path class="st4" d="M229.3,473.7c-0.4-0.6-0.7-1.3-1.1-1.9c-0.4-0.8-0.8-1.6-1.2-2.3c-0.2-0.5-0.5-1-0.7-1.5
			c0.2,0.5,0.5,1,0.7,1.5c0.4,0.8,0.8,1.6,1.2,2.3C228.6,472.4,229,473.1,229.3,473.7z"/>
		<path class="st4" d="M312.2,332.5v8c-4.7-1.4-9.4-4.2-14.2-8.7l0,0L312.2,332.5z"/>
		<path class="st4" d="M312.2,467.4v60.5l-71.6-37.5l0,0l0,0c-0.4-0.5-0.8-0.9-1.2-1.4c-0.8-1-1.5-1.9-2.2-2.9
			c-0.4-0.5-0.7-1-1.1-1.5c-0.7-0.9-1.3-1.8-1.9-2.8c0.1-0.2,0.3-0.5,0.4-0.7c0.6-0.9,1.2-1.8,1.8-2.6c0.2-0.3,0.4-0.5,0.6-0.8
			c0.2-0.3,0.4-0.5,0.7-0.8c0.2-0.2,0.4-0.5,0.7-0.8c0.2-0.2,0.5-0.5,0.7-0.7s0.5-0.5,0.7-0.7s0.5-0.4,0.7-0.6s0.5-0.4,0.8-0.6l0,0
			c0.2-0.2,0.5-0.4,0.8-0.5c0.3-0.2,0.6-0.4,1-0.6c0.2-0.1,0.4-0.2,0.6-0.3h0.1c0.2-0.1,0.5-0.2,0.7-0.3c0.1,0,0.1-0.1,0.2-0.1
			c0.2-0.1,0.4-0.2,0.6-0.2c0.1,0,0.1-0.1,0.2-0.1c0.2-0.1,0.5-0.2,0.8-0.2c0.3-0.1,0.5-0.1,0.8-0.2h0.1c0.3,0,0.6-0.1,0.9-0.1
			c0.3,0,0.6,0,0.9,0c3.5,0,7.3,1.6,11.4,5.7c21.4,21,2-29.6,6.1-41.9c0,0,10.2-3.7,18.4,14.8c0.1,0.3,0.3,0.6,0.4,0.9
			c0.1,0.1,0.1,0.3,0.2,0.4c0.5,1,1.1,1.9,1.8,2.8c0.1,0.2,0.2,0.3,0.3,0.4c0.6,0.7,1.2,1.3,1.8,1.9c0.1,0.1,0.2,0.2,0.3,0.2
			c0.1,0.1,0.2,0.2,0.3,0.2c0.2,0.2,0.4,0.3,0.7,0.5c0.1,0.1,0.2,0.2,0.3,0.2c0.1,0.1,0.2,0.2,0.3,0.2c0.5,0.4,1.1,0.7,1.6,1.1
			c0.4,0.2,0.7,0.4,1.1,0.7c0.3,0.2,0.7,0.4,1.1,0.6c0.3,0.2,0.7,0.3,1,0.5s0.7,0.3,1,0.5c0.5,0.2,1,0.5,1.6,0.7
			c0.1,0.1,0.2,0.1,0.3,0.1c0.4,0.2,0.8,0.4,1.3,0.5c3.1,1.3,6.2,2.5,9.1,4.1c0.4,0.2,0.8,0.4,1.2,0.6c0.2,0.1,0.5,0.3,0.7,0.4
			c0.1,0.1,0.3,0.2,0.4,0.3C311.9,467.2,312.1,467.3,312.2,467.4z"/>
		<path class="st5" d="M305.4,272c0,0-4.2,0.3-9.3,0.7c-12.7,0.8-25.3-3.7-34.4-12.6c-1.4-1.4-2.3-2.4-2.1-2.7
			c0.2-0.5,1.7-0.5,4-0.2c-1.9-1.2-2.9-2.2-2.6-2.6c0.8-1.3,11.5,1.6,23.7,6.5C296.1,265.5,305.4,271.9,305.4,272z"/>
		<path class="st5" d="M323.5,165.6v201.9c-0.1,0-0.2,0-0.3,0v-26.2c-3.6,0.5-7.3,0.2-11-0.9c-4.7-1.4-9.4-4.2-14.2-8.7l0,0l0,0
			l14.2,0.7l10.5,0.5l0.5-0.2v-17.3l-4.2-2.7l-4.9-3.2h9.1V166.4c-11.2,3.5-24.4,11.4-39.7,26.3c1.1-1,2.1-2,3.1-3
			c1.2-1.2,2.5-2.3,3.7-3.4c0.4-0.4,0.8-0.7,1.2-1.1c0.4-0.3,0.8-0.7,1.2-1c1.6-1.4,3.2-2.7,4.7-3.9c0.8-0.6,1.5-1.2,2.3-1.7
			c0.4-0.3,0.8-0.6,1.2-0.9c0.8-0.5,1.5-1.1,2.2-1.6s1.5-1,2.2-1.5c0,0,0.1,0,0.1-0.1c1.1-0.7,2.1-1.3,3.1-2
			c0.7-0.4,1.4-0.8,2.1-1.2s1.4-0.8,2.1-1.1c1-0.5,2.1-1,3.1-1.5c0.7-0.3,1.3-0.6,2-0.9c0.3-0.1,0.7-0.3,1-0.4
			c1-0.4,1.9-0.8,2.9-1.1C322.3,166,322.9,165.8,323.5,165.6z"/>
		<path class="st6" d="M387.9,147.6c-0.1,0.1-0.2,0.1-0.2,0.1c-5.3-9.1-10.8-16.7-16.4-23C377.3,131.3,382.9,138.9,387.9,147.6z"/>
		<path class="st7" d="M305.4,272c0,0-4.2,0.3-9.3,0.7c-12.7,0.8-25.3-3.7-34.4-12.6c-1.4-1.4-2.3-2.4-2.1-2.7
			c0.2-0.5,1.7-0.5,4-0.2c-1.9-1.2-2.9-2.2-2.6-2.6c0.8-1.3,11.5,1.6,23.7,6.5C296.1,265.5,305.4,271.9,305.4,272z"/>
		<path class="st7" d="M298,331.8L298,331.8L298,331.8L298,331.8z M433.9,171.2c-15.3-45.9-45.2-32.4-48-31
			c-0.1,0.1-0.2,0.1-0.2,0.1c-5.3-9.1-10.8-16.7-16.5-23c-11.3-12-24.3-21.8-38.9-25.5c-35.9-6.9-71,23.2-90.8,43.8
			c-27.7,40.7-39,98.1-39,122c0,3.6,0.2,7.2,0.1,10.8c-1.5,42.4-12.8,85.6-10.3,93c10.6,31.8,35.8,51.8,59.8,63.7
			c27.9-8.2,41.9-29.9,46.3-66.6c0.1-0.5,0.1-1.1,0.2-1.6c-9.5-6.8-18.3-15.9-25.2-24.4c-0.5-0.6-0.9-1.2-1.4-1.8
			c-0.6-0.8-1.3-1.6-1.9-2.4c-0.5-0.7-1-1.3-1.5-2c-0.8-1-1.5-2-2.1-3c-0.2-0.3-0.4-0.6-0.6-0.8c0-0.1-0.1-0.1-0.1-0.1
			c-0.3-0.5-0.7-1-1-1.5c-1.3-1.9-2.4-3.7-3.4-5.3c-3.7-6.2-12.2-43.5-14.5-75.3c0.7-1,1.3-1.9,2-2.9c0.6-0.9,1.3-1.9,1.9-2.8
			c0.7-1,1.4-2.1,2.2-3.1c1.5-2.1,3-4.1,4.5-6.1c0.5-0.7,1-1.3,1.5-2c1-1.3,1.9-2.6,2.9-3.8s1.9-2.5,2.9-3.7
			c0.5-0.6,0.9-1.2,1.4-1.8c1.4-1.8,2.8-3.5,4.2-5.2c1.4-1.6,2.7-3.2,4-4.7c0.9-1,1.8-2,2.7-3c0.9-1,1.8-1.9,2.6-2.9
			c0.9-0.9,1.7-1.8,2.6-2.7c0.4-0.4,0.9-0.9,1.3-1.3c0.4-0.4,0.9-0.9,1.3-1.3l0.1-0.1c0.2-0.2,0.4-0.4,0.6-0.6
			c15.3-14.9,28.5-22.8,39.7-26.3v143.2h-9.1l4.9,3.2l4.2,2.7v17.3l-0.5,0.2l-10.5-0.5l-14.2-0.7l0,0l0,0c4.8,4.4,9.5,7.2,14.2,8.7
			c3.7,1.1,7.4,1.4,11,0.9v26.2c0.1,0,0.2,0,0.3,0c0.1,0,0.2,0,0.3,0c0.3,0,0.6,0,0.9,0c0.4,0,0.8,0,1.2,0
			c11.4-0.6,23.1-7.7,33.5-16.8c2.8,34.5,12.9,57,33.4,68.6c27-13.3,50-34.6,62.7-69.1C461,335.6,446.2,207,433.9,171.2z M298,331.8
			L298,331.8L298,331.8L298,331.8z"/>
		<g>
			<path class="st4" d="M240.7,490.5L240.7,490.5C240.6,490.4,240.7,490.4,240.7,490.5L240.7,490.5z"/>
			<path class="st4" d="M234.3,481.8L234.3,481.8c-0.1-0.1-0.2-0.3-0.3-0.4C234.1,481.5,234.2,481.6,234.3,481.8z"/>
			<path class="st4" d="M358.6,328.6c0,7.9,0.3,15.2,0.8,22.1c-10.4,9.1-22.1,16.2-33.5,16.8c-0.4,0-0.8,0-1.2,0c-0.3,0-0.6,0-0.9,0
				c-0.1,0-0.2,0-0.3,0c-0.1,0-0.2,0-0.3,0v-26.2c-3.6,0.5-7.3,0.2-11-0.9c-4.7-1.4-9.4-4.2-14.2-8.7l0,0l14.2,0.7l10.5,0.5l0.5-0.2
				v-17.3l-4.2-2.7l-4.9-3.2h9.1v-6.2c0.1,0,0.2,0,0.3,0c1.5-0.1,3-0.1,4.5-0.1h0.5c10.7,0,21.1,1.5,30.9,4.3
				C358.9,314.5,358.6,321.5,358.6,328.6z"/>
			<path class="st4" d="M424.2,479c-2.5,4-5.2,7.8-8.2,11.4L336.8,532c-2.7,0.2-5.4,0.3-8.2,0.3h-0.5c-0.8,0-1.5,0-2.2,0
				c-0.4,0-0.7,0-1.1,0c-0.7,0-1.4,0-2-0.1h-0.2c-0.7,0-1.5-0.1-2.2-0.1H320l0,0l-7.7-4l-71.6-37.5l0,0l0,0l0,0
				c-0.4-0.5-0.8-0.9-1.2-1.4c-0.8-1-1.5-1.9-2.2-2.9c-0.4-0.5-0.7-1-1.1-1.5c-0.7-0.9-1.3-1.8-1.9-2.8c0.1-0.2,0.3-0.5,0.4-0.7
				c0.6-0.9,1.2-1.8,1.8-2.6c0.2-0.3,0.4-0.5,0.6-0.8c0.2-0.3,0.4-0.5,0.7-0.8c0.2-0.2,0.4-0.5,0.7-0.8c0.2-0.2,0.5-0.5,0.7-0.7
				s0.5-0.5,0.7-0.7s0.5-0.4,0.7-0.6s0.5-0.4,0.8-0.6l0,0c0.2-0.2,0.5-0.4,0.8-0.5c0.3-0.2,0.6-0.4,1-0.6c0.2-0.1,0.4-0.2,0.6-0.3
				h0.1c0.2-0.1,0.5-0.2,0.7-0.3c0.1,0,0.1-0.1,0.2-0.1c0.2-0.1,0.4-0.2,0.6-0.2c0.1,0,0.1-0.1,0.2-0.1c0.2-0.1,0.5-0.2,0.8-0.2
				c0.3-0.1,0.5-0.1,0.8-0.2h0.1c0.3,0,0.6-0.1,0.9-0.1c0.3,0,0.6,0,0.9,0c3.5,0,7.3,1.6,11.4,5.7c21.4,21,2-29.6,6.1-41.9
				c0,0,10.2-3.7,18.4,14.8c0.1,0.3,0.3,0.6,0.4,0.9c0.1,0.1,0.1,0.3,0.2,0.4c0.5,1,1.1,1.9,1.8,2.8c0.1,0.2,0.2,0.3,0.3,0.4
				c0.6,0.7,1.2,1.3,1.8,1.9c0.1,0.1,0.2,0.2,0.3,0.2c0.1,0.1,0.2,0.2,0.3,0.2c0.2,0.2,0.4,0.3,0.7,0.5c0.1,0.1,0.2,0.2,0.3,0.2
				c0.1,0.1,0.2,0.2,0.3,0.2c0.5,0.4,1.1,0.7,1.6,1.1c0.4,0.2,0.7,0.4,1.1,0.7c0.3,0.2,0.7,0.4,1.1,0.6c0.3,0.2,0.7,0.3,1,0.5
				s0.7,0.3,1,0.5c0.5,0.2,1,0.5,1.6,0.7c0.1,0.1,0.2,0.1,0.3,0.1c0.4,0.2,0.8,0.4,1.3,0.5c3.1,1.3,6.2,2.5,9.1,4.1
				c0.4,0.2,0.8,0.4,1.2,0.6c0.2,0.1,0.5,0.3,0.7,0.4c0.1,0.1,0.3,0.2,0.4,0.3c0.1,0.1,0.3,0.2,0.4,0.3c0.5,0.3,0.9,0.6,1.3,1
				c0.2,0.1,0.4,0.3,0.6,0.5c0.1,0.1,0.3,0.2,0.4,0.3c0.2,0.2,0.5,0.4,0.7,0.6c0.7,0.7,1.4,1.4,2.1,2.2c0.1,0.2,0.3,0.4,0.4,0.6
				c0.6,0.8,1.2,1.8,1.8,2.8c0.1,0.2,0.2,0.4,0.3,0.7c0.4,0.8,0.8,1.7,1.1,2.7c0.2,0.6,0.4,1.3,0.6,2c0.3,1,0.5,2.1,0.6,3.3
				c0.2,1.8,0.4,3.7,0.4,5.9c0,0,11.2-25.9,35.7-19.7c24.5,6.2,37.7,22.2,37.7,11.1S382.7,451,382.7,451s10.2,1.2,24.5,4.9
				c5.4,1.4,11.5,12,15.7,20.8C423.3,477.1,423.8,478.1,424.2,479z"/>
		</g>
		<g>
			<path class="st4" d="M216,428.8c-0.2,0-0.4,0-0.5,0l0,0C215.6,428.8,215.8,428.8,216,428.8z"/>
			<path class="st4" d="M220.1,451.8c-0.4-1.4-0.8-2.8-1.2-4.2c-0.1-0.4-0.2-0.7-0.3-1.1s-0.2-0.9-0.3-1.3c0-0.1,0-0.1,0-0.2
				c0,0.1,0,0.1,0.1,0.2c0.1,0.4,0.2,0.9,0.3,1.3s0.2,0.7,0.3,1.1C219.2,449.1,219.6,450.5,220.1,451.8z"/>
			<path class="st4" d="M229.3,473.7c-0.4-0.6-0.7-1.3-1.1-1.9c-0.4-0.8-0.8-1.6-1.2-2.3c-0.2-0.5-0.5-1-0.7-1.5
				c0.2,0.5,0.5,1,0.7,1.5c0.4,0.8,0.8,1.6,1.2,2.3C228.6,472.4,229,473.1,229.3,473.7z"/>
			<path class="st4" d="M312.2,332.5v8c-4.7-1.4-9.4-4.2-14.2-8.7l0,0L312.2,332.5z"/>
			<path class="st4" d="M312.2,467.4v60.5l-71.6-37.5l0,0l0,0c-0.4-0.5-0.8-0.9-1.2-1.4c-0.8-1-1.5-1.9-2.2-2.9
				c-0.4-0.5-0.7-1-1.1-1.5c-0.7-0.9-1.3-1.8-1.9-2.8c0.1-0.2,0.3-0.5,0.4-0.7c0.6-0.9,1.2-1.8,1.8-2.6c0.2-0.3,0.4-0.5,0.6-0.8
				c0.2-0.3,0.4-0.5,0.7-0.8c0.2-0.2,0.4-0.5,0.7-0.8c0.2-0.2,0.5-0.5,0.7-0.7s0.5-0.5,0.7-0.7s0.5-0.4,0.7-0.6s0.5-0.4,0.8-0.6l0,0
				c0.2-0.2,0.5-0.4,0.8-0.5c0.3-0.2,0.6-0.4,1-0.6c0.2-0.1,0.4-0.2,0.6-0.3h0.1c0.2-0.1,0.5-0.2,0.7-0.3c0.1,0,0.1-0.1,0.2-0.1
				c0.2-0.1,0.4-0.2,0.6-0.2c0.1,0,0.1-0.1,0.2-0.1c0.2-0.1,0.5-0.2,0.8-0.2c0.3-0.1,0.5-0.1,0.8-0.2h0.1c0.3,0,0.6-0.1,0.9-0.1
				c0.3,0,0.6,0,0.9,0c3.5,0,7.3,1.6,11.4,5.7c21.4,21,2-29.6,6.1-41.9c0,0,10.2-3.7,18.4,14.8c0.1,0.3,0.3,0.6,0.4,0.9
				c0.1,0.1,0.1,0.3,0.2,0.4c0.5,1,1.1,1.9,1.8,2.8c0.1,0.2,0.2,0.3,0.3,0.4c0.6,0.7,1.2,1.3,1.8,1.9c0.1,0.1,0.2,0.2,0.3,0.2
				c0.1,0.1,0.2,0.2,0.3,0.2c0.2,0.2,0.4,0.3,0.7,0.5c0.1,0.1,0.2,0.2,0.3,0.2c0.1,0.1,0.2,0.2,0.3,0.2c0.5,0.4,1.1,0.7,1.6,1.1
				c0.4,0.2,0.7,0.4,1.1,0.7c0.3,0.2,0.7,0.4,1.1,0.6c0.3,0.2,0.7,0.3,1,0.5s0.7,0.3,1,0.5c0.5,0.2,1,0.5,1.6,0.7
				c0.1,0.1,0.2,0.1,0.3,0.1c0.4,0.2,0.8,0.4,1.3,0.5c3.1,1.3,6.2,2.5,9.1,4.1c0.4,0.2,0.8,0.4,1.2,0.6c0.2,0.1,0.5,0.3,0.7,0.4
				c0.1,0.1,0.3,0.2,0.4,0.3C311.9,467.2,312.1,467.3,312.2,467.4z"/>
		</g>
		<path class="st3" d="M427.6,486.7l-17.7,9.2l-79.2,41l-8.4,4.4l-8.4-4.4l0,0l-1.6-0.8L234.6,496l0,0l0,0l-1.7-0.9l0,0l-3.8-2
			c0.3-0.9,0.7-1.9,1.1-2.9c0.1-0.2,0.2-0.5,0.3-0.7c0.2-0.5,0.5-1.1,0.7-1.6c0.1-0.2,0.1-0.3,0.2-0.4c0.1-0.2,0.2-0.5,0.3-0.7
			c0.4-1,0.9-1.9,1.4-2.8c0.2-0.3,0.3-0.6,0.5-0.9s0.4-0.6,0.5-0.9c0-0.1,0.1-0.1,0.1-0.2l0,0c0.1-0.2,0.3-0.5,0.4-0.7
			c0.6-0.9,1.2-1.8,1.8-2.6c0.2-0.3,0.4-0.5,0.6-0.8c0.2-0.3,0.4-0.5,0.7-0.8c0.2-0.2,0.4-0.5,0.7-0.8c0.2-0.2,0.5-0.5,0.7-0.7
			s0.5-0.5,0.7-0.7s0.5-0.4,0.7-0.6s0.5-0.4,0.8-0.6l0,0c0.2-0.2,0.5-0.4,0.8-0.5c0.3-0.2,0.6-0.4,1-0.6c0.2-0.1,0.4-0.2,0.6-0.3
			h0.1c0.2-0.1,0.5-0.2,0.7-0.3c0.1,0,0.1-0.1,0.2-0.1c0.2-0.1,0.4-0.2,0.6-0.2c0.1,0,0.1-0.1,0.2-0.1c0.2-0.1,0.5-0.2,0.8-0.2
			c0.3-0.1,0.5-0.1,0.8-0.2h0.1c0.3,0,0.6-0.1,0.9-0.1c0.3,0,0.6,0,0.9,0c3.5,0,7.3,1.6,11.4,5.7c21.4,21,2-29.6,6.1-41.9
			c0,0,10.2-3.7,18.4,14.8c0.1,0.3,0.3,0.6,0.4,0.9c0.1,0.1,0.1,0.3,0.2,0.4c0.5,1,1.1,1.9,1.8,2.8c0.1,0.2,0.2,0.3,0.3,0.4
			c0.6,0.7,1.2,1.3,1.8,1.9c0.1,0.1,0.2,0.2,0.3,0.2c0.1,0.1,0.2,0.2,0.3,0.2c0.2,0.2,0.4,0.3,0.7,0.5c0.1,0.1,0.2,0.2,0.3,0.2
			c0.1,0.1,0.2,0.2,0.3,0.2c0.5,0.4,1.1,0.7,1.6,1.1c0.4,0.2,0.7,0.4,1.1,0.7c0.3,0.2,0.7,0.4,1.1,0.6c0.3,0.2,0.7,0.3,1,0.5
			s0.7,0.3,1,0.5c0.5,0.2,1,0.5,1.6,0.7c0.1,0.1,0.2,0.1,0.3,0.1c0.4,0.2,0.8,0.4,1.3,0.5c3.1,1.3,6.2,2.5,9.1,4.1
			c0.4,0.2,0.8,0.4,1.2,0.6c0.2,0.1,0.5,0.3,0.7,0.4c0.1,0.1,0.3,0.2,0.4,0.3c0.1,0.1,0.3,0.2,0.4,0.3c0.5,0.3,0.9,0.6,1.3,1
			c0.2,0.1,0.4,0.3,0.6,0.5c0.1,0.1,0.3,0.2,0.4,0.3c0.2,0.2,0.5,0.4,0.7,0.6c0.7,0.7,1.4,1.4,2.1,2.2c0.1,0.2,0.3,0.4,0.4,0.6
			c0.6,0.8,1.2,1.8,1.8,2.8c0.1,0.2,0.2,0.4,0.3,0.7c0.4,0.8,0.8,1.7,1.1,2.7c0.2,0.6,0.4,1.3,0.6,2c0.3,1,0.5,2.1,0.6,3.3
			c0.2,1.8,0.4,3.7,0.4,5.9c0,0,11.2-25.9,35.7-19.7c24.5,6.2,37.7,22.2,37.7,11.1S382.6,451,382.6,451s10.2,1.2,24.5,4.9
			c5.4,1.4,11.5,12,15.7,20.8c0.5,1,0.9,1.9,1.3,2.8C425.7,482.3,426.9,485.1,427.6,486.7z"/>
		<path class="st8" d="M305.4,272c0,0-4.2,0.3-9.3,0.7c-12.7,0.8-25.3-3.7-34.4-12.6c-1.4-1.4-2.3-2.4-2.1-2.7
			c0.2-0.5,1.7-0.5,4-0.2c-1.9-1.2-2.9-2.2-2.6-2.6c0.8-1.3,11.5,1.6,23.7,6.5C296.1,265.5,305.4,271.9,305.4,272z"/>
		<path class="st8" d="M323.5,165.6v201.9c-0.1,0-0.2,0-0.3,0v-26.2c-3.6,0.5-7.3,0.2-11-0.9c-4.7-1.4-9.4-4.2-14.2-8.7l0,0l0,0
			l14.2,0.7l10.5,0.5l0.5-0.2v-17.3l-4.2-2.7l-4.9-3.2h9.1V166.4c-11.2,3.5-24.4,11.4-39.7,26.3c1.1-1,2.1-2,3.1-3
			c1.2-1.2,2.5-2.3,3.7-3.4c0.4-0.4,0.8-0.7,1.2-1.1c0.4-0.3,0.8-0.7,1.2-1c1.6-1.4,3.2-2.7,4.7-3.9c0.8-0.6,1.5-1.2,2.3-1.7
			c0.4-0.3,0.8-0.6,1.2-0.9c0.8-0.5,1.5-1.1,2.2-1.6s1.5-1,2.2-1.5c0,0,0.1,0,0.1-0.1c1.1-0.7,2.1-1.3,3.1-2
			c0.7-0.4,1.4-0.8,2.1-1.2s1.4-0.8,2.1-1.1c1-0.5,2.1-1,3.1-1.5c0.7-0.3,1.3-0.6,2-0.9c0.3-0.1,0.7-0.3,1-0.4
			c1-0.4,1.9-0.8,2.9-1.1C322.3,166,322.9,165.8,323.5,165.6z"/>
		<path class="st8" d="M281.5,194.7c-0.4,0.4-0.9,0.9-1.3,1.3c0.3-0.3,0.5-0.5,0.8-0.8C281.2,195,281.4,194.8,281.5,194.7z"/>
		<path class="st8" d="M305.4,272c0,0-4.2,0.3-9.3,0.7c-12.7,0.8-25.3-3.7-34.4-12.6c-1.4-1.4-2.3-2.4-2.1-2.7
			c0.2-0.5,1.7-0.5,4-0.2c-1.9-1.2-2.9-2.2-2.6-2.6c0.8-1.3,11.5,1.6,23.7,6.5C296.1,265.5,305.4,271.9,305.4,272z"/>
		<path class="st8" d="M402.9,212.6v27.1v7.3c-1.3,14-3.7,28.7-6.2,40.9c-2.9,14-5.9,24.8-7.7,27.9c-3.2,5.3-8.6,12.9-15.3,20.7
			c-4.3,4.9-9.1,9.9-14.2,14.3c-10.4,9.1-22.1,16.2-33.5,16.8c-0.4,0-0.8,0-1.2,0c-0.3,0-0.6,0-0.9,0c-0.1,0-0.2,0-0.3,0
			c-0.1,0-0.2,0-0.3,0v-26.2c-3.6,0.5-7.3,0.2-11-0.9c-4.7-1.4-9.4-4.2-14.2-8.7l0,0l0,0l14.2,0.7l10.5,0.5l0.5-0.2v-17.3l-4.2-2.7
			l-4.9-3.2h9.1V166.4c-11.2,3.5-24.4,11.4-39.7,26.3c-0.2,0.2-0.4,0.4-0.6,0.6c1.2-1.2,2.5-2.4,3.7-3.6c1.2-1.2,2.5-2.3,3.7-3.4
			c0.4-0.4,0.8-0.7,1.2-1.1c0.4-0.3,0.8-0.7,1.2-1c1.6-1.4,3.2-2.7,4.7-3.9c0.8-0.6,1.5-1.2,2.3-1.7c0.4-0.3,0.8-0.6,1.2-0.9
			c0.8-0.6,1.5-1.1,2.2-1.6s1.5-1,2.2-1.5c0,0,0.1,0,0.1-0.1c1.1-0.7,2.1-1.4,3.1-2c0.7-0.4,1.4-0.8,2.1-1.2s1.4-0.8,2.1-1.1
			c1-0.5,2.1-1.1,3.1-1.5c0.7-0.3,1.3-0.6,2-0.9c0.3-0.1,0.7-0.3,1-0.4c1-0.4,1.9-0.8,2.9-1.1c0.6-0.2,1.2-0.4,1.9-0.6l0,0
			c31.8-10.5,47.2,14.4,47.2,14.4c9.3-2.5,24.7-1.5,30.5,20C402.3,204.1,402.8,208.3,402.9,212.6z"/>
		<path class="st4" d="M436.7,428.9c-18.1,0-32.5-3.1-43.8-9.5c-20.5-11.6-30.6-34.1-33.4-68.6c-10.4,9.1-22.1,16.2-33.5,16.8
			c-0.4,0-0.8,0-1.2,0c-0.3,0-0.6,0-0.9,0c-0.1,0-0.2,0-0.3,0c-0.1,0-0.2,0-0.3,0v-26.2c-3.6,0.5-7.3,0.2-11-0.9
			c-4.7-1.4-9.4-4.2-14.2-8.7l0,0l0,0l14.2,0.7l10.5,0.5l0.5-0.2v-17.3l-4.2-2.7l-4.9-3.2h9.1V166.4c-11.2,3.5-24.4,11.4-39.7,26.3
			c-0.2,0.2-0.4,0.4-0.6,0.6l-0.1,0.1c-0.4,0.4-0.9,0.8-1.3,1.3c-0.4,0.4-0.9,0.9-1.3,1.3c-0.9,0.9-1.7,1.8-2.6,2.7
			s-1.8,1.9-2.6,2.9c-0.9,1-1.8,2-2.7,3c-1.3,1.5-2.7,3.1-4,4.7c-1.4,1.7-2.8,3.4-4.2,5.2c-0.5,0.6-0.9,1.2-1.4,1.8
			c-1,1.2-1.9,2.4-2.9,3.7c-1,1.2-1.9,2.5-2.9,3.8c-0.5,0.6-1,1.3-1.5,2c-1.5,2-3,4-4.5,6.1c-0.7,1-1.4,2-2.2,3.1
			c-0.6,0.9-1.3,1.8-1.9,2.8c-0.7,0.9-1.3,1.9-2,2.9c2.3,31.7,10.8,69.1,14.5,75.3c0.9,1.6,2.1,3.4,3.4,5.3c0.3,0.5,0.7,1,1,1.5
			l0.1,0.1c0.2,0.3,0.4,0.6,0.6,0.8c0.7,1,1.4,1.9,2.1,3c0.5,0.7,1,1.3,1.5,2c0.6,0.8,1.2,1.6,1.9,2.4c0.5,0.6,0.9,1.2,1.4,1.8
			c6.9,8.5,15.7,17.6,25.2,24.4c-0.1,0.5-0.1,1.1-0.2,1.6c-4.5,36.7-18.5,58.4-46.3,66.6c-8.7,2.5-18.7,3.8-30.1,3.8
			c-0.8,0-1.5,0-2.3,0c-0.6,0-1.1,0-1.7-0.1c-0.2,0-0.4,0-0.5,0c0.1,0.8,0.2,1.6,0.3,2.5c0,0.2,0,0.4,0.1,0.5
			c0.1,0.8,0.2,1.6,0.3,2.4c0.1,0.6,0.2,1.2,0.3,1.9c0,0.1,0,0.3,0.1,0.4c0.1,0.5,0.2,1,0.2,1.4c0,0.3,0.1,0.6,0.2,0.9
			c0.1,0.4,0.1,0.8,0.2,1.2c0.1,0.3,0.1,0.7,0.2,1c0.2,1,0.4,1.9,0.6,2.9c0,0.1,0,0.2,0.1,0.3c0,0.2,0.1,0.4,0.2,0.6
			c0,0.1,0.1,0.3,0.1,0.4s0,0.1,0.1,0.2c0.1,0.4,0.2,0.9,0.3,1.3s0.2,0.7,0.3,1.1c0.4,1.4,0.8,2.8,1.2,4.2l0,0
			c0.1,0.4,0.2,0.8,0.4,1.1c0,0.1,0,0.1,0,0.1c0.2,0.6,0.4,1.2,0.6,1.9c0.2,0.6,0.4,1.3,0.7,1.9c0.1,0.3,0.2,0.7,0.4,1
			c0.2,0.5,0.4,1.1,0.6,1.6c0.1,0.2,0.2,0.4,0.2,0.6c0.3,0.7,0.6,1.5,0.9,2.2c0.3,0.6,0.5,1.3,0.8,1.9c0.5,1.1,1,2.2,1.5,3.2
			c0.1,0.2,0.2,0.3,0.2,0.5c0.2,0.5,0.5,1,0.7,1.5c0.4,0.8,0.8,1.6,1.2,2.3c0.3,0.7,0.7,1.3,1,1.9s0.7,1.3,1.1,1.9
			c0.2,0.4,0.5,0.8,0.7,1.1c0.6,1.1,1.3,2.2,2,3.2c0.3,0.5,0.6,0.9,0.9,1.4l0,0c0.1,0.1,0.2,0.3,0.3,0.4c0.1-0.2,0.3-0.5,0.4-0.7
			c0.6-0.9,1.2-1.8,1.8-2.6c0.2-0.3,0.4-0.5,0.6-0.8c0.2-0.3,0.4-0.5,0.7-0.8c0.2-0.2,0.4-0.5,0.7-0.8c0.2-0.2,0.5-0.5,0.7-0.7
			s0.5-0.5,0.7-0.7s0.5-0.4,0.7-0.6s0.5-0.4,0.8-0.6l0,0c0.2-0.2,0.5-0.4,0.8-0.5c0.3-0.2,0.6-0.4,1-0.6c0.2-0.1,0.4-0.2,0.6-0.3
			h0.1c0.2-0.1,0.5-0.2,0.7-0.3c0.1,0,0.1-0.1,0.2-0.1c0.2-0.1,0.4-0.2,0.6-0.2c0.1,0,0.1-0.1,0.2-0.1c0.2-0.1,0.5-0.2,0.8-0.2
			c0.3-0.1,0.5-0.1,0.8-0.2h0.1c0.3,0,0.6-0.1,0.9-0.1c0.3,0,0.6,0,0.9,0c3.5,0,7.3,1.6,11.4,5.7c21.4,21,2-29.6,6.1-41.9
			c0,0,10.2-3.7,18.4,14.8c0.1,0.3,0.3,0.6,0.4,0.9c0.1,0.1,0.1,0.3,0.2,0.4c0.5,1,1.1,1.9,1.8,2.8c0.1,0.2,0.2,0.3,0.3,0.4
			c0.6,0.7,1.2,1.3,1.8,1.9c0.1,0.1,0.2,0.2,0.3,0.2c0.1,0.1,0.2,0.2,0.3,0.2c0.2,0.2,0.4,0.3,0.7,0.5c0.1,0.1,0.2,0.2,0.3,0.2
			c0.1,0.1,0.2,0.2,0.3,0.2c0.5,0.4,1.1,0.7,1.6,1.1c0.4,0.2,0.7,0.4,1.1,0.7c0.3,0.2,0.7,0.4,1.1,0.6c0.3,0.2,0.7,0.3,1,0.5
			s0.7,0.3,1,0.5c0.5,0.2,1,0.5,1.6,0.7c0.1,0.1,0.2,0.1,0.3,0.1c0.4,0.2,0.8,0.4,1.3,0.5c3.1,1.3,6.2,2.5,9.1,4.1
			c0.4,0.2,0.8,0.4,1.2,0.6c0.2,0.1,0.5,0.3,0.7,0.4c0.1,0.1,0.3,0.2,0.4,0.3c0.1,0.1,0.3,0.2,0.4,0.3c0.5,0.3,0.9,0.6,1.3,1
			c0.2,0.1,0.4,0.3,0.6,0.5c0.1,0.1,0.3,0.2,0.4,0.3c0.2,0.2,0.5,0.4,0.7,0.6c0.7,0.7,1.4,1.4,2.1,2.2c0.1,0.2,0.3,0.4,0.4,0.6
			c0.6,0.8,1.2,1.8,1.8,2.8c0.1,0.2,0.2,0.4,0.3,0.7c0.4,0.8,0.8,1.7,1.1,2.7c0.2,0.6,0.4,1.3,0.6,2c0.3,1,0.5,2.1,0.6,3.3
			c0.2,1.8,0.4,3.7,0.4,5.9c0,0,11.2-25.9,35.7-19.7c24.5,6.2,37.7,22.2,37.7,11.1s-13.2-30.8-13.2-30.8s10.2,1.2,24.5,4.9
			c5.4,1.4,11.5,12,15.7,20.8c0.5,1,0.9,1.9,1.3,2.8c1.8-2.8,3.4-5.7,4.9-8.6c6.5-12.6,10.7-26.7,12.1-41.5
			C439.7,428.9,438.2,428.9,436.7,428.9z M296.1,272.6c-12.7,0.8-25.3-3.7-34.4-12.6c-1.4-1.4-2.3-2.4-2.1-2.7
			c0.2-0.5,1.7-0.5,4-0.2c-1.9-1.2-2.9-2.2-2.6-2.6c0.8-1.3,11.5,1.6,23.7,6.5c11.4,4.5,20.7,11,20.7,11
			C305.4,272,301.2,272.3,296.1,272.6z"/>
		<path class="st4" d="M305.4,272c0,0-4.2,0.3-9.3,0.7c-12.7,0.8-25.3-3.7-34.4-12.6c-1.4-1.4-2.3-2.4-2.1-2.7
			c0.2-0.5,1.7-0.5,4-0.2c-1.9-1.2-2.9-2.2-2.6-2.6c0.8-1.3,11.5,1.6,23.7,6.5C296.1,265.5,305.4,271.9,305.4,272z"/>
		<polygon class="st4" points="323.2,309.6 323.2,315.5 319,312.8 314.1,309.6 		"/>
		<path class="st4" d="M296.6,356.9c-0.1,0.5-0.1,1.1-0.2,1.6c-16.9-11.8-31.7-31.2-38.1-41.8c-3.7-6.2-12.2-43.5-14.5-75.3
			c13.5-19.9,25.9-35,37.1-46.3c0.2-0.2,0.3-0.3,0.5-0.5c-0.4,0.4-0.9,0.9-1.3,1.3c-0.9,0.9-1.7,1.8-2.6,2.7s-1.8,1.9-2.6,2.9
			c-0.9,1-1.8,2-2.7,3c-1.3,1.5-2.7,3.1-4,4.7c-1.4,1.7-2.8,3.4-4.2,5.2c-0.5,0.6-0.9,1.2-1.4,1.8c-1,1.2-1.9,2.4-2.9,3.7
			c-1,1.2-1.9,2.5-2.9,3.8c-0.5,0.6-1,1.3-1.5,2c-1.5,2-3,4-4.5,6.1c-0.7,1-1.4,2-2.2,3.1c-0.6,0.9-1.3,1.8-1.9,2.8
			c-0.7,0.9-1.3,1.9-2,2.9c2.3,31.7,10.8,69.1,14.5,75.3c0.9,1.6,2.1,3.4,3.4,5.3c0.3,0.5,0.7,1,1,1.5l0.1,0.1
			c0.2,0.3,0.4,0.6,0.6,0.8c0.7,1,1.4,1.9,2.1,3c0.5,0.7,1,1.3,1.5,2c0.6,0.8,1.2,1.6,1.9,2.4c0.5,0.6,0.9,1.2,1.4,1.8
			C278.4,341.1,287.1,350.2,296.6,356.9z"/>
		<path class="st4" d="M323.2,332.8v8.5c-3.6,0.5-7.3,0.2-11-0.9c-4.7-1.4-9.4-4.2-14.2-8.7l0,0l0,0l14.2,0.7l10.5,0.5L323.2,332.8z
			"/>
		<polygon class="st9" points="333.7,309.6 328.8,312.8 323.9,316 323.5,315.7 323.2,315.5 319,312.8 314.1,309.6 		"/>
		<path class="st10" d="M349.8,324.4c-7.9,9.2-16.8,15.6-26.3,17c-0.1,0-0.2,0-0.3,0c-3.6,0.5-7.3,0.2-11-0.9
			c-4.7-1.4-9.4-4.2-14.2-8.7l0,0l0,0l14.2,0.7l10.5,0.5l0.5-0.2l0.3-0.1L349.8,324.4z"/>
		<path class="st11" d="M305.4,272c0,0-4.2,0.3-9.3,0.7c-12.7,0.8-25.3-3.7-34.4-12.6c-1.4-1.4-2.3-2.4-2.1-2.7
			c0.2-0.5,1.7-0.5,4-0.2c-1.9-1.2-2.9-2.2-2.6-2.6c0.8-1.3,11.5,1.6,23.7,6.5C296.1,265.5,305.4,271.9,305.4,272z"/>
		<g>
			<path class="st12" d="M256.3,238.7c-0.2-2.9,0.3-5.8,1.3-8.6s2.8-5.6,5.7-7.3c1.4-0.9,3.1-1.5,4.7-1.7s3.3-0.2,4.9,0.1
				c3.2,0.5,6,1.8,8.6,3.2c5.2,3,9.4,6.9,13.5,10.6c2.1,1.9,4.1,3.7,6.3,5.3c2.2,1.6,4.5,2.9,7.4,3.2c-1.4,0.4-2.9,0.5-4.4,0.2
				c-0.8-0.1-1.4-0.3-2.2-0.5c-0.7-0.2-1.4-0.5-2.1-0.8c-2.7-1.2-5.2-2.7-7.5-4.4c-4.7-3.2-9-6.8-13.6-9.4c-2.3-1.3-4.7-2.4-7-2.9
				c-2.4-0.6-4.7-0.6-6.8,0.4c-2.1,0.9-3.9,2.8-5.4,5C258.3,233.4,257.2,236,256.3,238.7z"/>
		</g>
		<path class="st11" d="M349.8,272.6c12.7,0.8,25.3-3.7,34.4-12.6c1.4-1.4,2.3-2.4,2.1-2.7c-0.2-0.5-1.7-0.5-4-0.2
			c1.9-1.2,2.9-2.2,2.6-2.6c-0.8-1.3-11.5,1.6-23.7,6.5c-11.4,4.5-20.7,11-20.7,11C340.4,272,344.6,272.3,349.8,272.6z"/>
		<g>
			<path class="st12" d="M389.6,238.7c-0.9-2.7-2-5.3-3.5-7.5s-3.3-4.1-5.4-5s-4.4-0.9-6.8-0.4s-4.8,1.6-7,2.9
				c-4.6,2.6-8.9,6.1-13.6,9.4c-2.4,1.6-4.8,3.2-7.5,4.4c-0.7,0.3-1.4,0.5-2.1,0.8c-0.7,0.2-1.4,0.4-2.2,0.5c-1.5,0.3-3,0.2-4.4-0.2
				c2.9-0.3,5.2-1.6,7.4-3.2c2.2-1.6,4.2-3.4,6.3-5.3c4.1-3.7,8.3-7.7,13.5-10.6c2.6-1.4,5.4-2.7,8.6-3.2c1.6-0.3,3.2-0.3,4.9-0.1
				c1.7,0.2,3.3,0.8,4.7,1.7c2.9,1.8,4.7,4.6,5.7,7.3C389.2,232.9,389.7,235.8,389.6,238.7z"/>
		</g>
	</g>
</g>
</svg>
