<?xml version="1.0" encoding="utf-8"?>
<!-- Generator: Adobe Illustrator 22.0.1, SVG Export Plug-In . SVG Version: 6.00 Build 0)  -->
<svg version="1.1" id="Layer_1" xmlns="http://www.w3.org/2000/svg" xmlns:xlink="http://www.w3.org/1999/xlink" x="0px" y="0px"
	 viewBox="0 0 648 648" style="enable-background:new 0 0 648 648;" xml:space="preserve">
<style type="text/css">
	.st0{fill:#F7F7F7;}
	.st1{fill:none;stroke:#010101;stroke-miterlimit:10;}
</style>
<rect class="st0" width="648" height="648"/>
<g>
	<path class="st1" d="M0,0v648h648V0H0z M455.9,596.5l0.7,0.3c0,0.2,0.1,0.4,0.1,0.6L455.9,596.5z M342.7,561L324,572.6L305.3,561
		C175.9,551.5,73.9,443.4,73.9,311.6c0-112.7,74.6-208,177.1-239.3V53.6l7.6,16.6c20.8-5.6,42.8-8.7,65.4-8.7
		c21.5,0,42.5,2.7,62.4,7.8l8.6-18.8v21.1c103.5,30.6,179.1,126.4,179.1,239.9C574.1,443.4,472.1,551.5,342.7,561z"/>
	<path class="st1" d="M408,341.6V154c0-14.3-4.8-27.4-13-37.8V50.6l-8.6,18.8L373,98.6c-8-3.8-17-6-26.4-6h-45
		c-10.6,0-20.5,2.7-29.2,7.4l-13.8-29.8L251,53.6V119c-6.9,9.9-11,22-11,35.1v187.5h-67.5v137L305.3,561l18.7,11.6l18.7-11.6
		l132.8-82.4v-137H408z M382.5,190.6c0,0-5.7,19-21.6,19c-6.4,0-15.4-5-17.8-7L382.5,190.6z M302.9,202.6c-2.4,2-11.4,7-17.8,7
		c-15.9,0-21.6-19-21.6-19L302.9,202.6z M370.8,301.5L355,318.3c-8.5,9-19.5,14-30.9,15l-0.1-49.7H324l-0.1,49.7
		c-11.4-1-22.4-6-30.9-15l-15.8-16.8l-17.6-63.2h33.1l31.3,22l31.3-22h33.1L370.8,301.5z"/>
	<polygon class="st1" points="324,278.7 324,278.7 324,260.3 	"/>
	<polygon class="st1" points="297.5,283.6 324,283.6 324,278.7 	"/>
	<polygon class="st1" points="324.5,278.6 324,278.7 324,283.6 346.5,283.6 	"/>
</g>
<rect x="430.3" y="578.7" class="st0" width="52.5" height="30"/>
</svg>
