<?xml version="1.0" encoding="utf-8"?>
<!-- Generator: Adobe Illustrator 22.0.1, SVG Export Plug-In . SVG Version: 6.00 Build 0)  -->
<svg version="1.1" id="Layer_1" xmlns="http://www.w3.org/2000/svg" xmlns:xlink="http://www.w3.org/1999/xlink" x="0px" y="0px"
	 viewBox="0 0 648 648" style="enable-background:new 0 0 648 648;" xml:space="preserve">
<style type="text/css">
	.st0{fill:#506654;}
	.st1{fill:#6F8E77;}
	.st2{fill:#E9BEB1;}
	.st3{fill:#0B6F48;}
	.st4{fill:#FFD5C6;}
	.st5{fill:#603813;}
	.st6{fill:#C39F96;}
	.st7{fill:#662D8F;}
	.st8{fill:#DEFFEC;}
	.st9{fill:#EFE6E9;}
</style>
<rect class="st0" width="648" height="648"/>
<g>
	<circle class="st1" cx="323.2" cy="313.1" r="250.1"/>
	<g>
		<g>
			<path class="st2" d="M255.9,242.2c0,16.5,0,29.8,0,29.8c-7.7,0-18-10.4-22.9-29.8c-4-16-4.8-30.6,2.9-30.6
				C243.6,211.5,255.9,225.7,255.9,242.2z"/>
			<path class="st2" d="M393,242.2c0,16.5,0,29.8,0,29.8c7.7,0,18-10.4,22.9-29.8c4-16,4.8-30.6-2.9-30.6
				C405.3,211.5,393,225.7,393,242.2z"/>
			<path class="st2" d="M256.8,269.4v0.2c-0.3,0-0.6-0.1-0.9-0.1C256.2,269.5,256.5,269.5,256.8,269.4z"/>
			<path class="st2" d="M255.8,269.5c-0.3,0-0.6,0.1-1,0.1v-0.2C255.2,269.5,255.5,269.5,255.8,269.5z"/>
			<path d="M323.4,586.2c0,0.2,0.1,0.4,0.1,0.6l-0.7-0.9L323.4,586.2z"/>
			<polygon class="st3" points="465.4,489.9 323.2,578.1 180.9,489.9 180.9,361.2 465.4,361.2 			"/>
			<path d="M382.6,261.6v98l-1.3,2.4c-29.6,55.7-89.1,54.5-117.6-2.4l0,0v-98H382.6z"/>
			<path class="st2" d="M392.1,299.5l-33.3,50.4h-70.5l-33.3-51l-12.3-108.3c-5.5-48.3,32.3-90.6,80.9-90.6h0
				c48.6,0,86.4,42.3,80.9,90.6L392.1,299.5z"/>
			<path class="st2" d="M324.5,99.9v250h-36l-33.5-51l-16.4-145.3c-3.2-28.6,17.8-38.2,47.9-53.6H324.5z"/>
			<polygon class="st4" points="324.4,213.6 331.2,241.3 338,269 324.5,279.4 310.8,269 317.6,241.3 			"/>
			<path class="st5" d="M324.2,140.2c0,0-77.5-31.1-76.9,91.3L235,167.8c-6-23.8,2.4-49,21.8-64c0.9-0.7,1.7-1.2,2.3-1.7
				c16.1-10.1,35.9-12,53.9-6l11.5,3.9L324.2,140.2z"/>
			<path class="st5" d="M324.2,140.2c0,0,74.1-31.3,78.7,63.4l9.1-35.8c6-23.8-2.4-49-21.8-64c-0.9-0.7-1.7-1.2-2.3-1.7
				c-16.1-10.1-35.9-12-53.9-6l-11.5,3.9L324.2,140.2z"/>
			<g>
				<path class="st6" d="M285.5,285.9c1.9,2.2,4.2,4,6.5,5.6c1.1,0.8,2.4,1.5,3.6,2.2c1.3,0.7,2.5,1.2,3.8,1.9
					c5.2,2.3,10.7,3.7,16.3,4.5c5.6,1,11.3,1.1,17.1,1.3c2.9-0.1,5.7-0.1,8.6-0.3c2.9-0.2,5.8-0.4,8.7-0.5c-2.8,0.7-5.7,1.4-8.5,2
					c-2.9,0.5-5.8,0.8-8.7,1.1c-1.5,0.1-2.9,0.1-4.4,0.2c-1.5,0-2.9,0.1-4.4,0l-4.4-0.3l-1.1-0.1l-1.1-0.2l-2.2-0.3
					c-1.5-0.2-2.9-0.4-4.4-0.8c-1.4-0.4-2.9-0.7-4.3-1.1l-4.2-1.5c-1.4-0.6-2.7-1.2-4-1.9c-1.3-0.8-2.6-1.5-3.8-2.3
					c-1.2-0.9-2.4-1.7-3.5-2.7C289,290.7,286.9,288.5,285.5,285.9z"/>
			</g>
		</g>
		<path class="st7" d="M366.7,188.9c-12.9,7.7-40.7,26.2-40.7,26.2s-27.8-18.5-40.7-26.2c-8.6-5.2-40.7-5.6-33.7,19.5
			c7,25,21.2,41,36.7,41.7c15.5,0.7,12.7-6.3,37.7-7.6c25,1.4,22.2,8.3,37.7,7.6c15.5-0.7,29.7-16.7,36.7-41.7
			C407.3,183.3,375.3,183.7,366.7,188.9z"/>
		<path class="st8" d="M302.8,219.3c-2,1.6-9.3,5.7-14.5,5.7c-13,0-17.7-15.5-17.7-15.5L302.8,219.3z"/>
		<path class="st8" d="M348.4,219.3c2,1.6,9.3,5.7,14.5,5.7c13,0,17.7-15.5,17.7-15.5L348.4,219.3z"/>
		<path class="st3" d="M403.5,127.2h-160V84.3c0-24.8,20.1-45,45-45h70c24.8,0,45,20.1,45,45V127.2z"/>
		<polyline class="st9" points="243.5,127.2 243.5,97.8 403.5,97.8 403.5,127.2 		"/>
		<path class="st3" d="M436.5,134.9l-33.3,4.5c-52.1,7-104.9,7-157.1,0.1l-33.8-4.5v-17.3c0-2.5,2.3-4.4,4.8-4l0,0
			c71.1,11.8,143.6,11.8,214.6,0l0,0c2.5-0.4,4.8,1.5,4.8,4V134.9z"/>
	</g>
</g>
</svg>
