<?xml version="1.0" encoding="utf-8"?>
<!-- Generator: Adobe Illustrator 22.0.1, SVG Export Plug-In . SVG Version: 6.00 Build 0)  -->
<svg version="1.1" id="Layer_1" xmlns="http://www.w3.org/2000/svg" xmlns:xlink="http://www.w3.org/1999/xlink" x="0px" y="0px"
	 viewBox="0 0 648 648" style="enable-background:new 0 0 648 648;" xml:space="preserve">
<style type="text/css">
	.st0{fill:#485D5D;}
	.st1{fill:#628180;}
	.st2{fill:#E9BEB1;}
	.st3{fill:#9EB2B2;}
	.st4{fill:#010101;}
	.st5{fill:#1A2B31;}
	.st6{fill:#AB344E;}
	.st7{fill:#EFE6E9;}
	.st8{fill:#FEF3F8;}
	.st9{fill:#C3A097;}
	.st10{fill:#231F20;}
</style>
<rect class="st0" width="648" height="648"/>
<g>
	<circle class="st1" cx="324" cy="315.5" r="250.1"/>
	<g>
		<path class="st2" d="M256.8,246c0,16.5,0,29.8,0,29.8c-7.7,0-18-10.4-22.9-29.8c-4-16-4.8-30.6,2.9-30.6
			C244.5,215.3,256.8,229.5,256.8,246z"/>
		<path class="st3" d="M393.8,246c0,16.5,0,29.8,0,29.8c7.7,0,18-10.4,22.9-29.8c4-16,4.8-30.6-2.9-30.6S393.8,229.5,393.8,246z"/>
		<path class="st2" d="M257.6,273.3v0.2c-0.3,0-0.6-0.1-0.9-0.1C257,273.3,257.3,273.3,257.6,273.3z"/>
		<path class="st2" d="M256.7,273.4c-0.3,0-0.6,0.1-1,0.1v-0.2C256.1,273.3,256.4,273.3,256.7,273.4z"/>
		<path class="st4" d="M324.3,590c0,0.2,0.1,0.4,0.1,0.6l-0.7-0.9L324.3,590z"/>
		<polygon class="st4" points="466.3,493.7 324,582 181.7,493.7 181.7,365 466.3,365 		"/>
		<path class="st2" d="M383.4,265.4v98l-1.3,2.4c-29.6,55.7-89.1,54.5-117.6-2.4l0,0v-98H383.4z"/>
		<path class="st3" d="M392.9,303.3l-33.3,50.4h-70.5l-33.3-51l-12.3-108.3c-5.5-48.3,32.3-90.6,80.9-90.6h0
			c48.6,0,86.4,42.3,80.9,90.6L392.9,303.3z"/>
		<path class="st2" d="M325.3,103.7v250h-36l-33.5-51l-16.4-145.3c-3.2-28.6,17.8-38.2,47.9-53.6H325.3z"/>
		<path class="st5" d="M302.5,225.1c-2,1.6-9.3,5.7-14.5,5.7c-13,0-17.7-15.5-17.7-15.5L302.5,225.1z"/>
		<path class="st6" d="M348.1,225.1c2,1.6,9.3,5.7,14.5,5.7c13,0,17.7-15.5,17.7-15.5L348.1,225.1z"/>
		<polygon class="st2" points="325.3,207.4 332.1,235.1 338.9,262.8 325.3,273.3 311.7,262.8 318.5,235.1 		"/>
		<path class="st5" d="M325.3,150.7c0,0-77.8-37.8-77.1,84.6l-12.3-63.8c-6-23.8,2.4-49,21.8-64c0.9-0.7,1.7-1.2,2.3-1.7
			c16.1-10.1,35.9-12,53.9-6l11.5,3.9L325.3,150.7z"/>
		<path class="st7" d="M325.3,150.7c0,0,73.9-38,78.4,56.7l9.1-35.8c6-23.8-2.4-49-21.8-64c-0.9-0.7-1.7-1.2-2.3-1.7
			c-16.1-10.1-35.9-12-53.9-6l-11.5,3.9L325.3,150.7z"/>
		<path class="st8" d="M325.3,303.3c37.6-22.9,37.6,8.5,37.6,8.5"/>
		<g>
			<path class="st9" d="M286.4,289.7c2.9,2.2,5.9,4.1,8.9,5.9c3,1.8,6.2,3.4,9.4,4.6c1.6,0.6,3.3,1.2,4.9,1.6
				c1.7,0.5,3.4,0.8,5.1,1.1c3.4,0.5,7,0.6,10.6,0.3c-3.3,1.4-7.1,2.1-10.8,2c-1.9,0-3.7-0.3-5.5-0.7c-1.8-0.4-3.6-0.9-5.3-1.6
				c-3.5-1.4-6.7-3.2-9.6-5.5C291.1,295.3,288.4,292.7,286.4,289.7z"/>
		</g>
		<g>
			<path class="st10" d="M260.2,201.7c-0.3-1.5-0.4-3-0.3-4.5c0.1-1.5,0.3-3,0.8-4.6c0.5-1.5,1.1-3,2.1-4.5c0.9-1.4,2.2-2.8,3.8-3.8
				c1.6-1,3.4-1.8,5.3-2.1c1.8-0.3,3.7-0.3,5.4,0c3.5,0.5,6.5,1.8,9.2,3.3c1.3,0.8,2.6,1.6,3.9,2.5c1.2,0.9,2.4,1.8,3.5,2.8
				c2.2,1.9,4.2,3.9,6.2,5.9c1.9,2,3.8,3.9,5.8,5.7c2,1.8,4,3.3,6.9,4.1c-1.3,0.6-3,0.9-4.5,0.7c-0.8,0-1.5-0.2-2.3-0.3
				c-0.7-0.2-1.5-0.4-2.2-0.6c-2.9-1-5.5-2.5-8-4c-4.9-3.1-9.2-6.4-13.6-8.9l-1.6-0.9c-0.5-0.3-1.1-0.5-1.6-0.8
				c-0.5-0.2-1.1-0.5-1.6-0.7c-0.5-0.1-1.1-0.4-1.6-0.5c-2.1-0.6-3.9-0.7-5.7-0.1c-1.8,0.6-3.7,2-5.3,4
				C262.9,196.6,261.5,199,260.2,201.7z"/>
		</g>
		<g>
			<path class="st10" d="M390.4,201.7c-1.3-2.6-2.7-5.1-4.4-7.1c-1.6-2-3.5-3.5-5.3-4c-1.8-0.6-3.6-0.5-5.7,0.1
				c-0.5,0.1-1,0.3-1.6,0.5c-0.5,0.2-1.1,0.4-1.6,0.7c-0.5,0.3-1.1,0.5-1.6,0.8l-1.6,0.9c-4.3,2.4-8.6,5.8-13.6,8.9
				c-2.5,1.5-5.1,3-8,4c-0.7,0.2-1.5,0.4-2.2,0.6c-0.8,0.1-1.5,0.3-2.3,0.3c-1.6,0.2-3.2-0.2-4.5-0.7c2.9-0.8,4.9-2.3,6.9-4.1
				c2-1.8,3.9-3.7,5.8-5.7c1.9-2,4-3.9,6.2-5.9c1.1-1,2.3-1.9,3.5-2.8c1.2-0.9,2.6-1.7,3.9-2.5c2.7-1.5,5.7-2.8,9.2-3.3
				c1.7-0.3,3.6-0.3,5.4,0c1.9,0.3,3.7,1,5.3,2.1c1.6,1,2.9,2.4,3.8,3.8c1,1.4,1.6,2.9,2.1,4.5c0.4,1.5,0.7,3,0.8,4.6
				C390.8,198.7,390.7,200.2,390.4,201.7z"/>
		</g>
		<path class="st7" d="M353.1,96.5c0,0,26.7-1,30.3-16.1c0,0,13.3,20.4-3.2,28c0,0,29.1-18.4,43.3,0c0,0-17.7-2.9-21.8,9.9
			c0,0,24.5,45,37.9,33.8c0,0-13.3,27.2-24.9,12.9c0,0,10.7,56.9,24.9,50.3c0,0-21.9,29.9-35.9-7.9c0,0,6.4-51.9,2.1-60.2
			C401.5,138.9,362,93,353.1,96.5z"/>
	</g>
</g>
</svg>
